<svg viewBox="0 0 378.04 304.92" xmlns="http://www.w3.org/2000/svg" xmlns:xlink="http://www.w3.org/1999/xlink"><linearGradient id="a" gradientUnits="userSpaceOnUse" x1="262.37" x2="183.48" y1="270.68" y2="211.29"><stop offset=".01"/><stop offset=".13" stop-opacity=".69"/><stop offset=".25" stop-opacity=".32"/><stop offset="1" stop-opacity="0"/></linearGradient><path d="m156.4 67.24c-33.69 21.76-56.5 56.49-78.32 90.18-8.9 13.75-17.84 27.58-24.42 42.58-6.73 15.36-10.88 31.78-13.26 48.39-3.55 24.78-1.67 53.55 17.47 69.69 10.05 8.47 23.32 12 36.25 14.31 51.4 9.26 104.36 3.58 156.23 9.6 28.38 3.3 56.61 10.11 85.15 8.61s58.64-13.24 72.84-38c16.57-28.93 6.82-65.81-8.42-95.46s-35.86-57.64-41.23-90.54c-2.21-13.51-1.89-27.94-8.57-39.88-7.47-13.37-22.2-20.86-36.57-26.15-49.27-18.18-111.05-23.14-157.15 6.67z" fill="#0052cc" opacity=".18" transform="translate(-38.94 -45.9)"/><path d="m87.1 183.78c3.81 3.82 8.61 6.47 13.34 9.06l23 12.65a5.52 5.52 0 0 0 2.41.86 5.35 5.35 0 0 0 2.62-.85 282.26 282.26 0 0 0 35.71-22.43c-2.62-2.33-5.44-4.76-8.91-5.33a19.56 19.56 0 0 0 -5.71.23 219.16 219.16 0 0 1 -42.07 1.56 61.43 61.43 0 0 1 -6.64-.66c-1.69-.29-4.15-1.52-5.84-1.21-1.33.25-7.49 6.54-7.91 6.12z" fill="#0052cc" opacity=".18" transform="translate(-38.94 -45.9)"/><path d="m164.79 253.73c6.29 6.3 14.21 10.67 22 15l38 20.86a9.16 9.16 0 0 0 4 1.43 9.06 9.06 0 0 0 4.34-1.41 468 468 0 0 0 58.91-37c-4.32-3.85-9-7.86-14.69-8.79a32.2 32.2 0 0 0 -9.44.37 362 362 0 0 1 -69.41 2.58 103 103 0 0 1 -10.95-1.1c-2.78-.47-6.85-2.51-9.63-2-2.27.38-12.44 10.75-13.13 10.06z" fill="#0052cc" opacity=".18" transform="translate(-38.94 -45.9)"/><path d="m295.45 190.85c3.52 3.52 7.94 6 12.29 8.36l21.2 11.64a3.8 3.8 0 0 0 4.64 0 260.92 260.92 0 0 0 32.9-20.67c-2.42-2.15-5-4.38-8.21-4.91a18.3 18.3 0 0 0 -5.27.21 201.7 201.7 0 0 1 -38.76 1.44 56.94 56.94 0 0 1 -6.11-.61c-1.55-.27-3.83-1.4-5.38-1.11-1.23.25-6.91 6.04-7.3 5.65z" fill="#0052cc" opacity=".18" transform="translate(-38.94 -45.9)"/><path d="m283.65 311c3.51 3.51 7.94 6 12.29 8.35l21.2 11.65a5.23 5.23 0 0 0 2.22.8 5.1 5.1 0 0 0 2.42-.79 262 262 0 0 0 32.9-20.66c-2.42-2.15-5-4.39-8.21-4.91a17.62 17.62 0 0 0 -5.27.21 202.51 202.51 0 0 1 -38.76 1.44 54.51 54.51 0 0 1 -6.11-.62c-1.55-.26-3.83-1.4-5.38-1.11-1.23.19-6.95 5.98-7.3 5.64z" fill="#0052cc" opacity=".18" transform="translate(-38.94 -45.9)"/><path d="m75.29 309.29c3.52 3.52 7.94 6 12.3 8.36l21.19 11.64a3.8 3.8 0 0 0 4.64 0 260.92 260.92 0 0 0 32.9-20.67c-2.42-2.15-5-4.38-8.21-4.91a18.3 18.3 0 0 0 -5.27.21 201.7 201.7 0 0 1 -38.76 1.44 56.94 56.94 0 0 1 -6.11-.61c-1.55-.27-3.82-1.4-5.38-1.11-1.23.25-6.91 6.04-7.3 5.65z" fill="#0052cc" opacity=".18" transform="translate(-38.94 -45.9)"/><path d="m186.57 233.39-57.69-33.31v-9.08l57.33-24.02 57.69 24.23v9.08z" fill="#0052cc"/><path d="m186.57 224.31-57.69-33.31 57.33-33.1 57.69 33.31z" fill="#fff"/><path d="m186.53 216.12-43.47-25.1 43.19-24.94 43.47 25.1z" fill="#0052cc"/><path d="m186.5 212.03-36.35-20.99 36.13-20.86 36.35 20.99z" fill="#fff"/><g transform="translate(-38.94 -45.9)"><path d="m216.27 240.79-38.44-11a11.34 11.34 0 0 1 2.9-2l30.53-16.44a2.07 2.07 0 0 1 3 .39l24.2 21.63a3.81 3.81 0 0 1 1.51 2.19 2.57 2.57 0 0 1 -1.6 2.46 7 7 0 0 1 -3.08.41 46.35 46.35 0 0 1 -8.13-1 10.59 10.59 0 0 0 -3.48-.39 3.07 3.07 0 0 0 -2.66 2" fill="url(#a)"/><path d="m226.63 228.38a8.83 8.83 0 0 0 .69 3.72 6.14 6.14 0 0 0 2.71 2.5 10.61 10.61 0 0 0 7.89.78 1.48 1.48 0 0 0 .91-.55 1.24 1.24 0 0 0 .16-.78 5.8 5.8 0 0 0 -2.07-3.71 13 13 0 0 1 -2.84-3.27c-1.21-2.44-.31-8.95-4.91-7.9-3.85.83-2.65 6.49-2.54 9.21z" fill="#ffbbab"/><path d="m226 232.78s-.65 1.61.15 2.55 9.07 6.09 14.64 1.95-7.55-4.68-7.55-4.68z" fill="#0052cc"/><path d="m226.31 229a1.18 1.18 0 0 1 1.49.39 4.86 4.86 0 0 0 4.43 1.58c1.82-.43 2.54-2.52 3.45-2.53s5.71 4.09 6 5.85-2.18 3-4.9 3.22-8.88-1.71-10-3.14a5.82 5.82 0 0 1 -.47-5.37z" fill="#fff"/><path d="m210.84 230.9a8.83 8.83 0 0 0 .69 3.72 6.14 6.14 0 0 0 2.71 2.5 10.6 10.6 0 0 0 7.89.78 1.48 1.48 0 0 0 .91-.55 1.24 1.24 0 0 0 .16-.78 5.8 5.8 0 0 0 -2.07-3.71 13 13 0 0 1 -2.84-3.27c-1.21-2.44-.31-9-4.91-7.9-3.85.87-2.65 6.49-2.54 9.21z" fill="#ffbbab"/><path d="m210.2 235.3s-.65 1.61.15 2.55 9.07 6.09 14.64 2-7.55-4.68-7.55-4.68z" fill="#0052cc"/><path d="m210.52 231.56a1.18 1.18 0 0 1 1.48.44 4.86 4.86 0 0 0 4.43 1.58c1.82-.43 2.54-2.52 3.45-2.53s5.71 4.09 6 5.85-2.18 3.05-4.9 3.22-8.88-1.71-10.05-3.14a5.79 5.79 0 0 1 -.41-5.42z" fill="#fff"/><path d="m207.54 162.92s-.86 47.3 2.65 63.08l8.89 1.09 6.15-64.76z" fill="#473f47"/><path d="m235 157.75s4.19 25.52-.89 66.49l-8.89 1.1-6.15-64.76z" fill="#473f47"/><path d="m245.43 137.41c-.1 1.71-.66 3.2-2.14 3.69a1.64 1.64 0 0 1 -.38.1c-2.73.55-6.31-1.53-8.81-3.34a33.65 33.65 0 0 1 -3-2.43v-18.27l13.28 13.6a21.3 21.3 0 0 1 1.05 6.65z" fill="#fff"/><path d="m234.91 138.62c0 .85.11 1.72.11 2.58 0 4.72-1.09 9.59.31 14.22a5.15 5.15 0 0 1 .4 3.16 4 4 0 0 1 -2 1.9c-4.16 2.27-9 3-13.66 3.63-3.53.49-8.54 1.54-11.81-.36-1.39-.81-1.86-2.32-2.3-3.83-1.42-4.78-1.83-9.93-2.21-14.89 0-.65-.09-1.3-.13-2q-.4-6.78-.27-13.56c.06-3.29.32-6.83 2.46-9.31 2.85-3.3 8.37-5.48 12.55-6.25a14.34 14.34 0 0 1 4.13-.23 17.49 17.49 0 0 1 5.58 1.9c2.08 1 3.93 1.89 4.95 3.95a27.89 27.89 0 0 1 2.32 7.48 26.93 26.93 0 0 1 .13 7.34c-.12 1.2-.43 2.39-.55 3.58 0 .26-.01.47-.01.69z" fill="#fff"/><path d="m215.57 165.2a4.16 4.16 0 0 1 -1.63.13c-1.31-.07-2.58-.78-3.86-1-.63-.12-1.2-.43-1.82-.58-3.13-.78-3.5-9.56-3.81-11.92-.81-6.25-2-12.72-2.13-19a21.25 21.25 0 0 1 .83-7.16 8.28 8.28 0 0 1 4.69-5.21 2.35 2.35 0 0 1 1.38-.15c1.83.47 1.77 2.56 2.38 3.94.7 1.55 2.67 2.81 4.47 2s2.06-3.42 2.75-5.4a6.24 6.24 0 0 1 2.81-3.48c3.27-1.74 5.82.93 6.92 3.83s-.1 6.7-.68 9.81c-1.45 7.7-3.48 15.42-7.44 22.24-1.6 2.76-4.66 6.06-4.64 9.29 0 1.57.44 2.37-.22 2.66z" fill="#020202" opacity=".1"/><path d="m223.22 111.87a3.05 3.05 0 0 1 -2.12.35 9.84 9.84 0 0 1 -1.78-.52c-.93-.33-.75.9-.8 1.63a13.5 13.5 0 0 0 .11 2.77 2.3 2.3 0 0 1 0 1 1.45 1.45 0 0 1 -1.07 1 3.22 3.22 0 0 1 -1.48 0 9.21 9.21 0 0 1 -1.63-.47 2.58 2.58 0 0 1 -1.15-.76 3 3 0 0 1 -.37-1.92c.16-4.77-.17-10.1 1.77-14.58a4.46 4.46 0 0 1 6.23-2.67 10.06 10.06 0 0 1 4.83 3.09 2.15 2.15 0 0 1 .3 1.8q-.16 1.63-.48 3.24c-.24 1.21-.53 2.42-.88 3.61a4.21 4.21 0 0 1 -1.48 2.43z" fill="#ffbbab"/><path d="m224.36 100.87a4.51 4.51 0 0 1 -.72 0 11.41 11.41 0 0 0 -3.46-.62 4.12 4.12 0 0 0 -3.4 4.19c-.56 0-.37-.91-.64-1.41s-1.32-.26-1.57.35a4 4 0 0 0 0 2 5.54 5.54 0 0 1 -.86 3.61c-.17.25-.47.52-.72.36s-.31-.69-.41-1a8.11 8.11 0 0 0 -.61-1.17c-.44-.73-1-1.42-1.44-2.14-.82-1.28-1.47-2.87-1-4.31a3.39 3.39 0 0 1 1.09-1.48c.49-.39 1.15-.44 1.63-.78s.26-.65.42-1.09a8.28 8.28 0 0 1 2.69-3.13 9.2 9.2 0 0 1 7-2.26 6.61 6.61 0 0 1 5.28 5.36 2.82 2.82 0 0 1 1.36 2.65 3.87 3.87 0 0 1 -.23 1.39 2.87 2.87 0 0 1 -2.74 1.79 4.47 4.47 0 0 0 .13-1.67.85.85 0 0 0 -.11-.35c-.17-.32-1.05-.3-1.69-.29z" fill="#473f47"/><path d="m219.53 111.77-.33-.12a.37.37 0 0 0 -.25 0c-.1 0-.15.14-.19.23a5.11 5.11 0 0 0 -.34 2.36l.13 1.25s-4.09-2-2.67-6.13a20.4 20.4 0 0 0 3.63 2.42z" fill="#e0a194"/><path d="m256.5 132.69a26.17 26.17 0 0 1 -6.38 6.35 12.65 12.65 0 0 1 -6 2.15 2 2 0 0 1 -.84-.09 2.26 2.26 0 0 1 -1.15-.8 6.66 6.66 0 0 1 -1.54-3.79c-.15-3.64 3.8-5.75 3.8-5.75s9-2.87 10-2.4c.59.25 1.14 1.52 1.52 2.61.38.92.59 1.72.59 1.72z" fill="#fff"/><path d="m243.42 130.85 5.26-16.54a2.6 2.6 0 0 1 2.67-1.81l4.19.31a2.61 2.61 0 0 1 2.23 3.57l-6.58 16.38a2.59 2.59 0 0 1 -2.54 1.62l-2.88-.14a2.61 2.61 0 0 1 -2.35-3.39z" fill="#0052cc"/><path d="m216.87 149.72a6.75 6.75 0 0 1 -8.61-4.1l-6.11-17.22a6.75 6.75 0 0 1 4.1-8.61c3.51-1.24 4.11 1 5.35 4.47l5.28 15.74c1.25 3.49 3.5 8.47-.01 9.72z" fill="#fff"/><path d="m256.5 132.69a26.17 26.17 0 0 1 -6.38 6.35 12.65 12.65 0 0 1 -6 2.15 2 2 0 0 1 -.84-.09 1.64 1.64 0 0 1 -.38.1c-2.73.55-6.31-1.53-8.81-3.34v-.06l.85-5.46a21.48 21.48 0 0 0 5.63 4.17 8.08 8.08 0 0 0 4.83.9 4.7 4.7 0 0 0 1.29-.4 41.75 41.75 0 0 0 9.25-6c.35.88.56 1.68.56 1.68z" fill="#020202" opacity=".1"/><path d="m221.42 112c.13-.53.38-1.16.92-1.27.71-.13 1.24.74 2 .81.38 0 .79-.15 1.14 0a1.33 1.33 0 0 1 .44.38 6.39 6.39 0 0 1 -1.92 9.48 2.63 2.63 0 0 1 -1.51.41 3.4 3.4 0 0 1 -1.36-.58c-1.35-.84-.71-2.27-.57-3.59a43.86 43.86 0 0 1 .86-5.64z" fill="#ffbbab"/><path d="m216.19 149.8c-1.82.37-8.59-2.05-3.33-14.39 2.4-5.65 3.64-11 6.82-16.27a1.77 1.77 0 0 1 .74-.79 1.7 1.7 0 0 1 1 0 34.7 34.7 0 0 1 4.48 1.06.93.93 0 0 1 .55.32 1 1 0 0 1 .09.6c-.39 5.1-2.38 9.93-3.19 15-.52 3.29-.58 6.76-2.17 9.69-.55.98-3.86 4.55-4.99 4.78z" fill="#fff"/><path d="m254.64 124.22a3.42 3.42 0 0 0 -3.59-.47 4.89 4.89 0 0 0 -2.41 4 6 6 0 0 0 .65 3.65 4.59 4.59 0 0 0 5.59 1.92 4.38 4.38 0 0 0 2.46-4.63 5.44 5.44 0 0 0 -1-1.76 10.59 10.59 0 0 0 -1.7-2.71z" fill="#ffbbab"/><path d="m171.58 255.51h-.22a1.16 1.16 0 0 1 -.92-1.36 12 12 0 0 1 7.28-8.35 1.16 1.16 0 0 1 1.52.64 1.17 1.17 0 0 1 -.65 1.52 9.68 9.68 0 0 0 -5.86 6.63 1.18 1.18 0 0 1 -1.15.92z" fill="#fff"/><path d="m180.77 261.17a.82.82 0 0 1 -.22 0 1.17 1.17 0 0 1 -.93-1.36 12.05 12.05 0 0 1 7.29-8.36 1.17 1.17 0 1 1 .87 2.17 9.65 9.65 0 0 0 -5.86 6.63 1.18 1.18 0 0 1 -1.15.92z" fill="#fff"/><path d="m190 266.84h-.22a1.17 1.17 0 0 1 -.93-1.36 12.06 12.06 0 0 1 7.28-8.36 1.17 1.17 0 0 1 1.52.64 1.16 1.16 0 0 1 -.64 1.52 9.67 9.67 0 0 0 -5.86 6.63 1.18 1.18 0 0 1 -1.15.93z" fill="#fff"/><path d="m199.15 272.51h-.22a1.17 1.17 0 0 1 -.93-1.36 12 12 0 0 1 7.28-8.36 1.17 1.17 0 0 1 .88 2.16 9.68 9.68 0 0 0 -5.87 6.63 1.16 1.16 0 0 1 -1.14.93z" fill="#fff"/><path d="m208.34 278.17a.9.9 0 0 1 -.23 0 1.16 1.16 0 0 1 -.92-1.36 12 12 0 0 1 7.28-8.36 1.17 1.17 0 0 1 .88 2.17 9.68 9.68 0 0 0 -5.87 6.63 1.16 1.16 0 0 1 -1.14.92z" fill="#fff"/><path d="m278.54 255.5a.82.82 0 0 0 .22 0 1.17 1.17 0 0 0 .93-1.36 12 12 0 0 0 -7.29-8.35 1.16 1.16 0 1 0 -.87 2.16 9.65 9.65 0 0 1 5.86 6.63 1.17 1.17 0 0 0 1.15.92z" fill="#fff"/><path d="m269.35 261.17a.78.78 0 0 0 .22 0 1.17 1.17 0 0 0 .93-1.36 12 12 0 0 0 -7.28-8.36 1.17 1.17 0 0 0 -1.52.65 1.16 1.16 0 0 0 .64 1.52 9.68 9.68 0 0 1 5.87 6.63 1.17 1.17 0 0 0 1.14.92z" fill="#fff"/><path d="m260.16 266.84h.22a1.16 1.16 0 0 0 .93-1.36 12 12 0 0 0 -7.31-8.38 1.17 1.17 0 0 0 -.88 2.16 9.7 9.7 0 0 1 5.87 6.63 1.17 1.17 0 0 0 1.17.95z" fill="#fff"/><path d="m251 272.51h.22a1.17 1.17 0 0 0 .92-1.36 12 12 0 0 0 -7.28-8.36 1.16 1.16 0 0 0 -1.52.64 1.17 1.17 0 0 0 .64 1.52 9.68 9.68 0 0 1 5.87 6.63 1.18 1.18 0 0 0 1.15.93z" fill="#fff"/><path d="m241.79 278.17a.86.86 0 0 0 .22 0 1.16 1.16 0 0 0 .92-1.36 12 12 0 0 0 -7.28-8.36 1.17 1.17 0 0 0 -.87 2.17 9.68 9.68 0 0 1 5.86 6.63 1.17 1.17 0 0 0 1.15.92z" fill="#fff"/></g><path d="m280.61 278.37-31.4-18.13v-4.95l31.21-13.07 31.4 13.19v4.94z" fill="#0052cc"/><path d="m280.61 273.43-31.4-18.14 31.21-18.02 31.4 18.14z" fill="#fff"/><path d="m280.59 268.97-23.66-13.66 23.51-13.58 23.67 13.66z" fill="#0052cc"/><path d="m280.58 266.74-19.8-11.43 19.67-11.35 19.8 11.42z" fill="#fff"/><path d="m290.2 311.32h-.13a.64.64 0 0 1 -.5-.74 6.53 6.53 0 0 1 4-4.55.63.63 0 0 1 .82.35.63.63 0 0 1 -.35.83 5.25 5.25 0 0 0 -3.19 3.61.64.64 0 0 1 -.65.5z" fill="#fff" transform="translate(-38.94 -45.9)"/><path d="m295.2 314.41h-.12a.63.63 0 0 1 -.51-.74 6.57 6.57 0 0 1 4-4.55.65.65 0 0 1 .83.35.64.64 0 0 1 -.36.83 5.28 5.28 0 0 0 -3.19 3.61.64.64 0 0 1 -.65.5z" fill="#fff" transform="translate(-38.94 -45.9)"/><path d="m300.2 317.49h-.12a.63.63 0 0 1 -.5-.74 6.5 6.5 0 0 1 4-4.55.63.63 0 0 1 .83.35.65.65 0 0 1 -.35.83 5.26 5.26 0 0 0 -3.2 3.61.63.63 0 0 1 -.66.5z" fill="#fff" transform="translate(-38.94 -45.9)"/><path d="m305.2 320.58h-.12a.62.62 0 0 1 -.5-.74 6.55 6.55 0 0 1 4-4.55.64.64 0 0 1 .48 1.18 5.25 5.25 0 0 0 -3.19 3.61.64.64 0 0 1 -.67.5z" fill="#fff" transform="translate(-38.94 -45.9)"/><path d="m310.2 323.66h-.12a.63.63 0 0 1 -.5-.74 6.53 6.53 0 0 1 4-4.55.64.64 0 0 1 .48 1.18 5.26 5.26 0 0 0 -3.19 3.61.64.64 0 0 1 -.67.5z" fill="#fff" transform="translate(-38.94 -45.9)"/><path d="m348.42 311.32h.12a.64.64 0 0 0 .51-.74 6.55 6.55 0 0 0 -4-4.55.64.64 0 0 0 -.47 1.18 5.25 5.25 0 0 1 3.19 3.61.64.64 0 0 0 .65.5z" fill="#fff" transform="translate(-38.94 -45.9)"/><path d="m343.42 314.41h.12a.63.63 0 0 0 .51-.74 6.57 6.57 0 0 0 -4-4.55.64.64 0 0 0 -.48 1.18 5.28 5.28 0 0 1 3.2 3.61.64.64 0 0 0 .65.5z" fill="#fff" transform="translate(-38.94 -45.9)"/><path d="m338.42 317.49h.12a.63.63 0 0 0 .5-.74 6.5 6.5 0 0 0 -4-4.55.63.63 0 0 0 -.83.35.65.65 0 0 0 .35.83 5.26 5.26 0 0 1 3.2 3.61.63.63 0 0 0 .66.5z" fill="#fff" transform="translate(-38.94 -45.9)"/><path d="m333.42 320.58h.12a.62.62 0 0 0 .5-.74 6.55 6.55 0 0 0 -4-4.55.64.64 0 0 0 -.48 1.18 5.25 5.25 0 0 1 3.19 3.61.64.64 0 0 0 .67.5z" fill="#fff" transform="translate(-38.94 -45.9)"/><path d="m328.42 323.66h.12a.64.64 0 0 0 .5-.74 6.53 6.53 0 0 0 -4-4.55.64.64 0 1 0 -.48 1.18 5.26 5.26 0 0 1 3.19 3.61.64.64 0 0 0 .67.5z" fill="#fff" transform="translate(-38.94 -45.9)"/><path d="m87 150.25-31.4-18.13v-4.94l31.21-13.08 31.41 13.19v4.95z" fill="#0052cc"/><path d="m87 145.31-31.4-18.13 31.21-18.02 31.41 18.13z" fill="#fff"/><path d="m86.98 140.85-23.66-13.66 23.51-13.58 23.67 13.67z" fill="#0052cc"/><path d="m86.97 138.63-19.8-11.43 19.67-11.36 19.8 11.43z" fill="#fff"/><path d="m96.59 183.21h-.12a.63.63 0 0 1 -.51-.74 6.57 6.57 0 0 1 4-4.55.63.63 0 0 1 .82.35.63.63 0 0 1 -.35.83 5.28 5.28 0 0 0 -3.19 3.61.65.65 0 0 1 -.65.5z" fill="#fff" transform="translate(-38.94 -45.9)"/><path d="m101.59 186.29h-.12a.64.64 0 0 1 -.51-.74 6.55 6.55 0 0 1 4-4.55.64.64 0 0 1 .83.35.65.65 0 0 1 -.35.83 5.24 5.24 0 0 0 -3.2 3.61.63.63 0 0 1 -.65.5z" fill="#fff" transform="translate(-38.94 -45.9)"/><path d="m106.59 189.38h-.12a.62.62 0 0 1 -.5-.74 6.55 6.55 0 0 1 4-4.55.64.64 0 1 1 .48 1.18 5.28 5.28 0 0 0 -3.2 3.61.63.63 0 0 1 -.66.5z" fill="#fff" transform="translate(-38.94 -45.9)"/><path d="m111.59 192.46h-.12a.63.63 0 0 1 -.5-.74 6.53 6.53 0 0 1 4-4.55.64.64 0 1 1 .48 1.18 5.25 5.25 0 0 0 -3.19 3.61.64.64 0 0 1 -.67.5z" fill="#fff" transform="translate(-38.94 -45.9)"/><path d="m116.6 195.55h-.13a.63.63 0 0 1 -.5-.74 6.57 6.57 0 0 1 4-4.55.64.64 0 0 1 .47 1.18 5.28 5.28 0 0 0 -3.19 3.61.65.65 0 0 1 -.65.5z" fill="#fff" transform="translate(-38.94 -45.9)"/><path d="m154.82 183.2h.12a.62.62 0 0 0 .5-.74 6.54 6.54 0 0 0 -4-4.55.64.64 0 0 0 -.47 1.18 5.28 5.28 0 0 1 3.19 3.61.64.64 0 0 0 .66.5z" fill="#fff" transform="translate(-38.94 -45.9)"/><path d="m149.81 186.29h.12a.64.64 0 0 0 .51-.74 6.55 6.55 0 0 0 -4-4.55.64.64 0 0 0 -.47 1.18 5.25 5.25 0 0 1 3.19 3.61.64.64 0 0 0 .65.5z" fill="#fff" transform="translate(-38.94 -45.9)"/><path d="m144.81 189.38h.12a.64.64 0 0 0 .51-.74 6.57 6.57 0 0 0 -4-4.55.64.64 0 1 0 -.48 1.18 5.28 5.28 0 0 1 3.2 3.61.64.64 0 0 0 .65.5z" fill="#fff" transform="translate(-38.94 -45.9)"/><path d="m139.81 192.46h.12a.63.63 0 0 0 .5-.74 6.53 6.53 0 0 0 -4-4.55.63.63 0 0 0 -.83.35.64.64 0 0 0 .35.83 5.22 5.22 0 0 1 3.19 3.61.64.64 0 0 0 .67.5z" fill="#fff" transform="translate(-38.94 -45.9)"/><path d="m134.81 195.55h.12a.62.62 0 0 0 .5-.74 6.55 6.55 0 0 0 -4-4.55.64.64 0 0 0 -.83.35.63.63 0 0 0 .35.83 5.28 5.28 0 0 1 3.19 3.61.65.65 0 0 0 .67.5z" fill="#fff" transform="translate(-38.94 -45.9)"/><path d="m71.96 275.9-31.41-18.14v-4.94l31.22-13.07 31.4 13.18v4.95z" fill="#0052cc"/><path d="m71.96 270.95-31.41-18.13 31.22-18.02 31.4 18.13z" fill="#fff"/><path d="m71.94 266.5-23.67-13.67 23.52-13.57 23.67 13.66z" fill="#0052cc"/><path d="m71.93 264.27-19.8-11.43 19.67-11.35 19.8 11.42z" fill="#fff"/><path d="m81.54 308.85h-.12a.63.63 0 0 1 -.5-.74 6.53 6.53 0 0 1 4-4.55.62.62 0 0 1 .82.35.63.63 0 0 1 -.35.82 5.28 5.28 0 0 0 -3.19 3.61.64.64 0 0 1 -.66.51z" fill="#fff" transform="translate(-38.94 -45.9)"/><path d="m86.55 311.93h-.12a.63.63 0 0 1 -.51-.74 6.57 6.57 0 0 1 4-4.55.63.63 0 0 1 .82.35.63.63 0 0 1 -.35.83 5.28 5.28 0 0 0 -3.19 3.61.64.64 0 0 1 -.65.5z" fill="#fff" transform="translate(-38.94 -45.9)"/><path d="m91.55 315h-.12a.65.65 0 0 1 -.51-.74 6.55 6.55 0 0 1 4-4.55.63.63 0 0 1 .83.35.63.63 0 0 1 -.35.82 5.28 5.28 0 0 0 -3.2 3.61.63.63 0 0 1 -.65.51z" fill="#fff" transform="translate(-38.94 -45.9)"/><path d="m96.55 318.1h-.12a.62.62 0 0 1 -.5-.74 6.55 6.55 0 0 1 4-4.55.64.64 0 0 1 .48 1.18 5.25 5.25 0 0 0 -3.19 3.61.64.64 0 0 1 -.67.5z" fill="#fff" transform="translate(-38.94 -45.9)"/><path d="m101.55 321.19h-.12a.63.63 0 0 1 -.5-.74 6.53 6.53 0 0 1 4-4.55.63.63 0 0 1 .83.35.64.64 0 0 1 -.35.83 5.25 5.25 0 0 0 -3.19 3.61.64.64 0 0 1 -.67.5z" fill="#fff" transform="translate(-38.94 -45.9)"/><path d="m139.77 308.85h.12a.64.64 0 0 0 .51-.74 6.55 6.55 0 0 0 -4-4.55.63.63 0 0 0 -.47 1.17 5.28 5.28 0 0 1 3.19 3.61.64.64 0 0 0 .65.51z" fill="#fff" transform="translate(-38.94 -45.9)"/><path d="m134.77 311.93h.12a.63.63 0 0 0 .51-.74 6.57 6.57 0 0 0 -4-4.55.64.64 0 1 0 -.48 1.18 5.28 5.28 0 0 1 3.2 3.61.63.63 0 0 0 .65.5z" fill="#fff" transform="translate(-38.94 -45.9)"/><path d="m129.77 315h.12a.63.63 0 0 0 .5-.74 6.53 6.53 0 0 0 -4-4.55.63.63 0 0 0 -.83.35.63.63 0 0 0 .35.82 5.28 5.28 0 0 1 3.2 3.61.62.62 0 0 0 .66.51z" fill="#fff" transform="translate(-38.94 -45.9)"/><path d="m124.77 318.1h.12a.62.62 0 0 0 .5-.74 6.55 6.55 0 0 0 -4-4.55.64.64 0 0 0 -.83.35.63.63 0 0 0 .35.83 5.28 5.28 0 0 1 3.19 3.61.64.64 0 0 0 .67.5z" fill="#fff" transform="translate(-38.94 -45.9)"/><path d="m119.76 321.19h.13a.64.64 0 0 0 .5-.74 6.55 6.55 0 0 0 -4-4.55.63.63 0 0 0 -.82.35.64.64 0 0 0 .35.83 5.25 5.25 0 0 1 3.19 3.61.64.64 0 0 0 .65.5z" fill="#fff" transform="translate(-38.94 -45.9)"/><path d="m292.79 160.33-31.41-18.13v-4.95l31.21-13.07 31.41 13.19v4.94z" fill="#0052cc"/><path d="m292.79 155.38-31.41-18.13 31.21-18.02 31.41 18.14z" fill="#fff"/><path d="m292.76 150.93-23.66-13.66 23.51-13.58 23.67 13.66z" fill="#0052cc"/><path d="m292.75 148.7-19.79-11.43 19.67-11.35 19.79 11.42z" fill="#fff"/><path d="m302.37 193.28h-.12a.64.64 0 0 1 -.51-.74 6.55 6.55 0 0 1 4-4.55.64.64 0 0 1 .83.35.65.65 0 0 1 -.36.83 5.25 5.25 0 0 0 -3.19 3.61.63.63 0 0 1 -.65.5z" fill="#fff" transform="translate(-38.94 -45.9)"/><path d="m307.37 196.37h-.12a.62.62 0 0 1 -.5-.74 6.52 6.52 0 0 1 4-4.55.64.64 0 0 1 .48 1.18 5.28 5.28 0 0 0 -3.2 3.61.64.64 0 0 1 -.66.5z" fill="#fff" transform="translate(-38.94 -45.9)"/><path d="m312.37 199.45h-.12a.63.63 0 0 1 -.5-.74 6.53 6.53 0 0 1 4-4.55.63.63 0 0 1 .83.35.65.65 0 0 1 -.35.83 5.22 5.22 0 0 0 -3.19 3.61.64.64 0 0 1 -.67.5z" fill="#fff" transform="translate(-38.94 -45.9)"/><path d="m317.37 202.54h-.12a.62.62 0 0 1 -.5-.74 6.55 6.55 0 0 1 4-4.55.64.64 0 0 1 .83.35.63.63 0 0 1 -.35.83 5.28 5.28 0 0 0 -3.23 3.57.65.65 0 0 1 -.63.54z" fill="#fff" transform="translate(-38.94 -45.9)"/><path d="m322.38 205.62h-.12a.64.64 0 0 1 -.51-.74 6.55 6.55 0 0 1 4-4.55.64.64 0 0 1 .47 1.18 5.25 5.25 0 0 0 -3.19 3.61.64.64 0 0 1 -.65.5z" fill="#fff" transform="translate(-38.94 -45.9)"/><path d="m360.6 193.28h.12a.63.63 0 0 0 .5-.74 6.53 6.53 0 0 0 -4-4.55.63.63 0 0 0 -.83.35.64.64 0 0 0 .35.83 5.25 5.25 0 0 1 3.19 3.61.64.64 0 0 0 .67.5z" fill="#fff" transform="translate(-38.94 -45.9)"/><path d="m355.59 196.37h.13a.63.63 0 0 0 .5-.74 6.57 6.57 0 0 0 -4-4.55.64.64 0 0 0 -.47 1.18 5.28 5.28 0 0 1 3.19 3.61.65.65 0 0 0 .65.5z" fill="#fff" transform="translate(-38.94 -45.9)"/><path d="m350.59 199.45h.12a.64.64 0 0 0 .51-.74 6.55 6.55 0 0 0 -4-4.55.64.64 0 1 0 -.47 1.18 5.25 5.25 0 0 1 3.19 3.61.63.63 0 0 0 .65.5z" fill="#fff" transform="translate(-38.94 -45.9)"/><path d="m345.59 202.54h.12a.62.62 0 0 0 .5-.74 6.52 6.52 0 0 0 -4-4.55.64.64 0 1 0 -.48 1.18 5.28 5.28 0 0 1 3.27 3.57.64.64 0 0 0 .59.54z" fill="#fff" transform="translate(-38.94 -45.9)"/><path d="m340.59 205.62h.12a.63.63 0 0 0 .5-.74 6.53 6.53 0 0 0 -4-4.55.63.63 0 0 0 -.83.35.64.64 0 0 0 .35.83 5.22 5.22 0 0 1 3.19 3.61.64.64 0 0 0 .67.5z" fill="#fff" transform="translate(-38.94 -45.9)"/><path d="m89.53 245.65-.98-1.75 27.92-15.57 22.38 10.29 30.62-17.04.98 1.75-31.52 17.53-22.37-10.29z" fill="#fff" opacity=".57"/><path d="m96.12 229.02-.95-1.76 23-12.34 11.21 4.88 13.09-9.49 1.17 1.62-14.02 10.16-11.36-4.95z" fill="#fff" opacity=".57"/><path d="m232.86 269.86-23.19-12.17 38.84-25.23-35.7-15.42.79-1.84 39.13 16.9-39.11 25.41 20.17 10.57z" fill="#fff" opacity=".57"/><path d="m96.5 185.2-19.07-10.65 65.12-38.11 1.01 1.73-62.1 36.34 15.05 8.4 34.97-19.05 21.12 11.61-.97 1.75-20.16-11.08z" fill="#fff" opacity=".57"/></svg>