<svg viewBox="0 0 339.56 267.44" xmlns="http://www.w3.org/2000/svg" xmlns:xlink="http://www.w3.org/1999/xlink"><linearGradient id="a" gradientUnits="userSpaceOnUse" x1="203.76" x2="206.72" y1="278.77" y2="280.98"><stop offset=".01"/><stop offset=".08" stop-opacity=".69"/><stop offset=".21" stop-opacity=".32"/><stop offset="1" stop-opacity="0"/></linearGradient><linearGradient id="b" x1="-78.5" x2="674.23" xlink:href="#a" y1="5.97" y2="568.95"/><linearGradient id="c" x1="174.64" x2="252.77" xlink:href="#a" y1="169.52" y2="417.64"/><linearGradient id="d" x1="194.72" x2="146.94" xlink:href="#a" y1="81.3" y2="404.22"/><linearGradient id="e" x1="169.32" x2="328.96" xlink:href="#a" y1="198.46" y2="253.7"/><linearGradient id="f" x1="147.35" x2="110.54" xlink:href="#a" y1="126.45" y2="375.27"/><linearGradient id="g" x1="145.99" x2="126.41" xlink:href="#a" y1="241.45" y2="291.81"/><linearGradient id="h" x1="232.62" x2="316.53" xlink:href="#a" y1="42.3" y2="775.13"/><path d="m351.09 203q-2.13-4-4.49-7.87-2.22-3.69-4.58-7.22c-6.85-10.27-14.46-20.38-17.81-32.26-4.14-14.7 0-31-4.44-45.21-3.77-12.36-15.26-25.29-23.92-34.44-19.15-20.34-45.26-35.2-73.8-34.83a98.53 98.53 0 0 0 -16.36 1.67c-10.69 1.94-21.18 5.32-31.5 8.81-26.14 8.86-52.35 18.73-74.77 34.84s-40.91 39.3-46 66.42c-2.64 14-1.69 28.76-6.23 42.3-5.44 16.2-17.52 26.84-21.36 43.67-4.42 19.37.2 42.26 16.43 53.71 8.45 5.95 19 8.17 29.21 9.38a183.39 183.39 0 0 0 76.53-7.36c13.93-4.43 27.72-10.59 42.34-10.65 15.74-.07 30.49 6.94 45.17 12.62 22.46 8.7 46.81 14.6 70.59 10.79s46.84-19 54.66-41.75c7.11-20.68.85-42.89-9.67-62.62z" fill="#0052cc" opacity=".18" transform="translate(-24.24 -41.11)"/><path d="m204.55 279.45.66.09c.48.38-.86.46-.66-.09z" fill="url(#a)" transform="translate(-24.24 -41.11)"/><path d="m351.09 203c-4.92 2-10.09 3.88-13.28 6.13l-75.51 53.04a181.24 181.24 0 0 1 -18.07 11.48c-5.09 2.75-8 8-14.16 9.4a24.57 24.57 0 0 1 -9.24-.16 86.56 86.56 0 0 1 -14.6-3.71c-.59-.2-1.41-.32-1.67.24-44-6-86.09-22-129.72-30.31a2.39 2.39 0 0 1 -.45-4.57 58.1 58.1 0 0 1 11.26-2.76c7-1.29 13.91-2.55 20.89-3.69a351 351 0 0 1 42.53-4.72c23.68-1 47.57 1.53 71-2.14 22.23-3.45 43.22-12.36 63.93-21.23 5-2.14 10.08-4.36 14-8.12 3.06-2.94 5.53-6.84 9.44-8.78s9-1.65 13.36-1.45a199.55 199.55 0 0 1 25.81 3.46q2.39 3.89 4.48 7.89z" fill="url(#b)" transform="translate(-24.24 -41.11)"/><path d="m76.79 234.24 98.84-43a11.78 11.78 0 0 1 6.93-1.15l122.25 10.39c2.34.33 1.92 10.39 0 12l-72.18 61.52a18.14 18.14 0 0 1 -16.17 4l-138.8-33.74c-1.77-.43-2.53-9.19-.87-10.02z" fill="#0052cc" transform="translate(-24.24 -41.11)"/><path d="m76.79 234.24 98.84-43a11.78 11.78 0 0 1 6.93-1.15l122.25 10.39c2.34.33 1.92 10.39 0 12l-72.18 61.52a18.14 18.14 0 0 1 -16.17 4l-138.8-33.74c-1.77-.43-2.53-9.19-.87-10.02z" fill="url(#c)" transform="translate(-24.24 -41.11)"/><path d="m304.84 205.36-72.21 61.46a18.11 18.11 0 0 1 -16.16 4.05l-138.82-33.74c-1.77-.43-2-3.23-.35-4.06l38.07-21.47 10-5.62 30.41-17.14a11.8 11.8 0 0 1 6.92-1.15l140.9 12.31c2.34.28 3.13 3.75 1.24 5.36z" fill="#0052cc" transform="translate(-24.24 -41.11)"/><path d="m138.45 149.98 128.8 19.05-39.64 32.2-132.2-26.75z" fill="url(#d)"/><path d="m214.4 224.94a49.8 49.8 0 0 0 15.49-6.21c1.32-.84 2.77-2.35 2-3.73-.52-1-1.8-1.27-2.2-2.32 1.75-.71 3.67-.38 5.26-1.75s1.76-4 .07-5a7.77 7.77 0 0 0 3.72-1.24 3 3 0 0 0 1.11-3.48c-.61-1.27-2.21-1.63-3.59-1.85a25.81 25.81 0 0 0 -5.87-.47 15.77 15.77 0 0 0 -6.4 2c-1.84 1-3.33 2.74-5.16 3.66-3.74 1.88-8.65 1.67-12.67 2.55-3 .65-5.9 1.78-8.85 2.67s-5.75 1.53-8.66 2.17q-10.56 2.32-21.17 4.4c.46 3.15 3.83 4.89 6.78 6.08a61.33 61.33 0 0 0 12.76 4 53 53 0 0 0 10.38.47 88.58 88.58 0 0 0 17-1.95z" fill="url(#e)" transform="translate(-24.24 -41.11)"/><path d="m124.97 182.46 53.08 10.73-27.45 22.4-55.19-12.39z" fill="url(#f)"/><path d="m122.66 248.18a8.59 8.59 0 0 0 5.47 4.48c3.9.94 26.63 6.76 26.63 6.76s3.7.44 5.75-2z" fill="url(#g)" transform="translate(-24.24 -41.11)"/><path d="m158.64 187.68 145.36 20.68a4.2 4.2 0 0 0 4.72-3.35l20.74-104.72a8.11 8.11 0 0 0 -7.25-9.66l-143.55-12.63a8.11 8.11 0 0 0 -8.77 7.2z" fill="#0052cc" transform="translate(-24.24 -41.11)"/><path d="m158.64 187.68 145 20.63a4.63 4.63 0 0 0 5.19-3.68l20.66-104.34a8.11 8.11 0 0 0 -7.25-9.66l-143.58-12.63a8.11 8.11 0 0 0 -8.77 7.2z" fill="url(#h)" transform="translate(-24.24 -41.11)"/><path d="m277.16 161.24 20.65-105.67-146.41-13.52-11.64 100.05z" fill="#fff"/><g transform="translate(-24.24 -41.11)"><path d="m152.59 246.19a1.94 1.94 0 0 0 .52 1.53 1.74 1.74 0 0 0 .7.29 7.36 7.36 0 0 0 2 .12 25.62 25.62 0 0 0 3.69-.53l2.1-.4a1 1 0 0 0 .69-.34.76.76 0 0 0 -.12-.81 3 3 0 0 0 -1.35-.88 26 26 0 0 0 -3.87-1.23 1.47 1.47 0 0 1 -.61-.24c-.26-.23-.31-.62-.49-.93a1.59 1.59 0 0 0 -1.66-.64c-.6.12-1.47.53-1.61 1.19a13.12 13.12 0 0 0 .01 2.87z" fill="#f9c6d6"/><path d="m159.35 244.19a1.26 1.26 0 0 0 -1.21.33c-.34.51.11 1.32-.31 1.78a1.22 1.22 0 0 1 -.92.27h-2.33a7.63 7.63 0 0 1 -1.85-.15.94.94 0 0 0 -.44-.05.55.55 0 0 0 -.38.46 1.22 1.22 0 0 0 .09.62 4 4 0 0 0 .64 1.17.87.87 0 0 0 .28.26 1.14 1.14 0 0 0 .41.07c1.37 0 2.74 0 4.11-.06.95-.07 1.89-.21 2.84-.29a12.06 12.06 0 0 0 4-.69 1.32 1.32 0 0 0 .77-.69 1 1 0 0 0 -.17-.87 2.27 2.27 0 0 0 -.68-.59 8.33 8.33 0 0 0 -2.43-1.05 17.29 17.29 0 0 0 -2.42-.52z" fill="#565056"/><path d="m127.24 243.63a.38.38 0 0 0 0 .15c.08 1.84 2.52 1.89 3.83 1.82a27 27 0 0 0 3.7-.52l2.09-.4a1 1 0 0 0 .69-.35.74.74 0 0 0 -.12-.8 3 3 0 0 0 -1.34-.89 35.56 35.56 0 0 0 -3.45-1.12c-1-.31-.17-1.74-.06-2.5a.72.72 0 0 0 0-.46.79.79 0 0 0 -.48-.33 6.36 6.36 0 0 0 -1.88-.34.65.65 0 0 0 -.37.07.63.63 0 0 0 -.22.31l-2 4.26a3.14 3.14 0 0 0 -.39 1.1z" fill="#f9c6d6"/><path d="m128.13 189.41s-1.49 8.4 1.59 14.71a101 101 0 0 0 5.41 9.87s-6.42 6.94-6.42 15.69-.16 9.15-.16 9.15l3.85 2 9.6-26.83s.58-3.8 0-5.09-5.5-15.91-5.5-15.91z" fill="#473f47"/><path d="m163 155.32c-2 0-4.17-2.12-5.38-5.4-1.4-3.79-.8-7.27 1.4-8.08s4.91 1.44 6.31 5.24c1.4 3.79.8 7.27-1.4 8.08a2.68 2.68 0 0 1 -.93.16zm-3-11.85a.81.81 0 0 0 -.31.05c-1 .38-1.4 2.93-.35 5.78s3 4.56 4 4.18 1.4-2.93.35-5.78c-1.01-2.59-2.69-4.23-3.76-4.23z" fill="#473f47"/><path d="m170.9 163.65a.91.91 0 0 1 -.71-.33l-6.62-8.32a.89.89 0 1 1 1.4-1.11l6.62 8.36a.88.88 0 0 1 -.69 1.44z" fill="#473f47"/><path d="m159.16 151.26a16.79 16.79 0 0 1 .11 2.65 2.87 2.87 0 0 1 -1.17 1.69 5.84 5.84 0 0 1 -1.93.84 1.61 1.61 0 0 0 -.57.24 1.38 1.38 0 0 0 -.3 1.06v2.26a1 1 0 0 1 -.16.67.76.76 0 0 1 -.39.22 2.41 2.41 0 0 1 -2.75-1.39 16.85 16.85 0 0 0 -.87-1.45 5.28 5.28 0 0 1 -.52-2 11.29 11.29 0 0 1 1.17-6.31 8.86 8.86 0 0 1 2.62-3.14c.89-.64 2.61-1.59 3.52-.49.45.54.44 1.35.86 1.92.3.41.84.7.92 1.2s-.25.86-.4 1.28a2.13 2.13 0 0 0 -.14.75z" fill="#f9c6d6"/><path d="m165.8 155.84a.71.71 0 0 0 0-.14 2.16 2.16 0 0 1 .55-1.41 1.12 1.12 0 0 1 1.4-.2c.17.12.3.32.5.41s.63 0 .84.24.15.44.25.65.39.4.58.6c.94 1-.1 2.83-.47 3.86-.56 1.54-1.11 3.09-1.57 4.67a2.48 2.48 0 0 1 -1.6-.31 1.77 1.77 0 0 1 -.46-.4 2.26 2.26 0 0 1 -.18-1.81 3.83 3.83 0 0 0 .1-1.39 12.25 12.25 0 0 0 -.5-1.48c-.14-.41-.26-.93.06-1.22a2.6 2.6 0 0 0 .36-.27.72.72 0 0 0 .12-.4c.04-.47-0-.94.02-1.4z" fill="#f9c6d6"/><path d="m147.52 193 9.33 21-.39 29.74-4.28-.31s-7.32-16.92-2.61-27.4c0 0-11.31-9.67-15.49-15.17-5.13-6.77-4-12.45-4-12.45z" fill="#565056"/><path d="m151.84 156.88a15.2 15.2 0 0 1 3.31 1.18c3.58 1.65 3.74 4.48 5 7.87a66.88 66.88 0 0 0 2.73 6.34l1.73-10.22 4.78 1.94s.48 15.08-3 17.11c-2.26 1.3-5.43-.22-7.48-1.27-.75-.38-2-1.53-2.79-1.64-1.53-.21-1.63 1.61-3 2.67a22.26 22.26 0 0 0 -2.54 1.73 8.3 8.3 0 0 0 -1.67 3 10.85 10.85 0 0 0 -.33 4.21 3.42 3.42 0 0 1 -.56 2.75 2.71 2.71 0 0 1 -1.39.62 16.66 16.66 0 0 1 -5.13-.06 51.28 51.28 0 0 1 -9.94-1.78 27.55 27.55 0 0 1 -3.46-1.33 2.28 2.28 0 0 1 -.66-.43 1.72 1.72 0 0 1 -.39-.84c-.45-2.06 1-4 1.79-5.93.5-1.32.66-2.76 1.11-4.1a17.48 17.48 0 0 1 2.26-3.82c.67-1 1-2.28 1.72-3.36a65.92 65.92 0 0 1 6-7.86 32.66 32.66 0 0 1 4.26-4.38 10 10 0 0 1 6.41-2.52 7.59 7.59 0 0 1 1.24.12z" fill="#0052cc"/><path d="m147.81 137.72a7.41 7.41 0 0 0 -3.43 1.42c-2.19 1.78-2.69 5-4.77 6.91-1.78 1.61-4.35 1.93-6.74 2.18a8.9 8.9 0 0 0 11.39 5.46l-2.45 2.44a.37.37 0 0 0 -.13.2c0 .16.15.26.3.31a4.76 4.76 0 0 0 3.5-.08 2.2 2.2 0 0 0 1.9 2.11 4.13 4.13 0 0 0 2.14-.26 3 3 0 0 1 1.19-.21c.34 0 .65.18 1 .06a6.52 6.52 0 0 0 2.4-2.69c.79-1.78-.37-4 .58-5.76.79-1.4 3.27-1.82 3.64-3.4.4-1.75-.55-4.31-1.56-5.69a7.85 7.85 0 0 0 -4.75-3.06 11 11 0 0 0 -3.38-.07z" fill="#fc682d"/><path d="m134.23 241.34a1.25 1.25 0 0 0 -1.21.34c-.34.5.11 1.31-.31 1.77a1.18 1.18 0 0 1 -.92.27h-2.33a6.75 6.75 0 0 1 -1.85-.15 1.09 1.09 0 0 0 -.44-.05.55.55 0 0 0 -.38.46 1.32 1.32 0 0 0 .09.62 4 4 0 0 0 .64 1.17 1 1 0 0 0 .28.26 1 1 0 0 0 .41.07c1.37 0 2.74 0 4.11-.06 1-.07 1.89-.21 2.84-.28a12.06 12.06 0 0 0 4-.7 1.32 1.32 0 0 0 .77-.69 1 1 0 0 0 -.17-.87 2.42 2.42 0 0 0 -.68-.59 8.33 8.33 0 0 0 -2.43-1.05 18.8 18.8 0 0 0 -2.42-.52z" fill="#565056"/><path d="m195.52 225.79c-16.17-.23-29.21-5.76-29.11-12.37 0-.73-.55-4.88-.23-5.54 2.55-5.54 15.3-6.19 29.68-6 14.15.21 26 0 28.68 5.47.39.78.45 6.1.44 6.89-.09 6.62-13.28 11.76-29.46 11.55z" fill="#e8a825"/></g><ellipse cx="195.49" cy="208.33" fill="#f8c244" rx="11.95" ry="29.29" transform="matrix(.01431121 -.99989759 .99989759 .01431121 -39.86 359.71)"/><ellipse cx="195.49" cy="208.33" fill="#e8a825" rx="10.18" ry="24.95" transform="matrix(.01431121 -.99989759 .99989759 .01431121 -39.86 359.71)"/><path d="m179.75 207.14 4 .06a3.27 3.27 0 0 1 1.78-2.44l2.65.41a3 3 0 0 0 -1.73 2.31c0 1.15 1.6 2 3.84 2a6 6 0 0 0 4.71-1.78 8.46 8.46 0 0 1 6.89-2.56c3.28 0 5.77 1 6.35 2.52l4 .06v1l-3.85-.06a2.85 2.85 0 0 1 -1.41 2.09l-2.6-.44a2.68 2.68 0 0 0 1.36-2c0-1.23-1.79-1.74-3.38-1.76a5.56 5.56 0 0 0 -4.54 1.94c-1.68 1.63-3.76 2.44-7.32 2.44-3.14 0-6.11-1-6.71-2.65l-4.11-.06z" fill="#f8c244" transform="translate(-24.24 -41.11)"/><path d="m190.9 214c-16.17-.23-29.21-5.76-29.11-12.37 0-.73-.55-4.88-.24-5.54 2.56-5.54 15.31-6.19 29.69-6 14.15.21 26 0 28.68 5.47.39.78.45 6.1.44 6.89-.09 6.55-13.28 11.73-29.46 11.55z" fill="#e8a825" transform="translate(-24.24 -41.11)"/><ellipse cx="190.87" cy="196.49" fill="#f8c244" rx="11.95" ry="29.29" transform="matrix(.01431121 -.99989759 .99989759 .01431121 -32.57 343.42)"/><ellipse cx="190.87" cy="196.49" fill="#e8a825" rx="10.18" ry="24.95" transform="matrix(.01431121 -.99989759 .99989759 .01431121 -32.57 343.42)"/><path d="m175.13 195.3 4 .06a3.27 3.27 0 0 1 1.78-2.44l2.65.41a3 3 0 0 0 -1.73 2.31c0 1.15 1.6 2 3.84 2a6 6 0 0 0 4.75-1.76 8.43 8.43 0 0 1 6.89-2.56c3.28 0 5.77 1 6.35 2.52l4 .06v1l-3.85-.06a2.85 2.85 0 0 1 -1.41 2.09l-2.6-.44a2.68 2.68 0 0 0 1.36-2c0-1.22-1.79-1.73-3.38-1.75a5.56 5.56 0 0 0 -4.54 1.94c-1.68 1.63-3.76 2.44-7.32 2.44-3.14 0-6.11-1-6.71-2.65l-4.11-.06z" fill="#f8c244" transform="translate(-24.24 -41.11)"/><path d="m204.53 208.33c-16.18-.24-29.22-5.77-29.12-12.37 0-.73-.55-4.88-.23-5.54 2.55-5.54 15.31-6.19 29.69-6 14.15.21 26 0 28.67 5.47.39.78.45 6.11.44 6.9-.08 6.6-13.28 11.77-29.45 11.54z" fill="#e8a825" transform="translate(-24.24 -41.11)"/><ellipse cx="204.49" cy="190.87" fill="#f8c244" rx="11.95" ry="29.29" transform="matrix(.01431121 -.99989759 .99989759 .01431121 -13.52 351.5)"/><ellipse cx="204.49" cy="190.87" fill="#e8a825" rx="10.18" ry="24.95" transform="matrix(.01431121 -.99989759 .99989759 .01431121 -13.52 351.5)"/><path d="m188.75 189.67 4 .06a3.26 3.26 0 0 1 1.78-2.44l2.65.42a3.06 3.06 0 0 0 -1.74 2.31c0 1.14 1.6 1.95 3.85 2a6 6 0 0 0 4.75-1.76 8.44 8.44 0 0 1 6.88-2.56c3.29 0 5.78 1 6.35 2.53l4 .06v1l-3.84-.06a2.89 2.89 0 0 1 -1.42 2.09l-2.6-.44a2.72 2.72 0 0 0 1.37-2c0-1.22-1.8-1.73-3.38-1.76a5.59 5.59 0 0 0 -4.54 1.94c-1.69 1.64-3.76 2.45-7.33 2.45-3.14 0-6.1-1-6.7-2.65l-4.11-.06z" fill="#f8c244" transform="translate(-24.24 -41.11)"/><path d="m184.76 151.06c-.47-.33 2-16.83 2-16.83l8.39.82-2.15 16.58z" fill="#0052cc" transform="translate(-24.24 -41.11)"/><path d="m201.53 152.69c-.47-.34 3.72-25 3.72-25l8.39.82-3.84 24.8z" fill="#0052cc" transform="translate(-24.24 -41.11)"/><path d="m218.3 154.31c-.46-.33 6.23-44.3 6.23-44.3l8.39.82-6.35 44.05z" fill="#0052cc" transform="translate(-24.24 -41.11)"/><path d="m235.07 155.94c-.46-.33 4.8-33.41 4.8-33.41l8.39.82-4.92 33.16z" fill="#0052cc" transform="translate(-24.24 -41.11)"/><path d="m243.5 161.06-65.7-4.77.06-.4c.68-5.24 6.68-51.21 7-52.06l.72.23c-.25 1-4.58 33.89-6.88 51.53l64.88 4.7z" fill="#0052cc" transform="translate(-24.24 -41.11)"/><path d="m271.3 176 1.54-8.09a21.1 21.1 0 0 1 -12-3.42l3-5.37a19.31 19.31 0 0 0 11.19 3.35c5.92 0 10.49-3.33 11.36-7.89s-1.86-7.1-7.51-9.48c-7.84-3.14-12.34-6.79-11-13.73 1.27-6.64 7.11-11.71 15-13l1.54-8.07h5.13l-1.55 7.76a19.83 19.83 0 0 1 10.22 2.73l-3.05 5.38a17.62 17.62 0 0 0 -9.91-2.66c-6.37 0-9.46 3.74-10.07 6.93-.8 4.16 1.87 6.22 8.5 9.05 7.89 3.3 11.39 7.42 10 14.54-1.2 6.32-6.9 12.28-15.66 13.7l-1.53 8.27z" fill="#0052cc" opacity=".39" transform="translate(-24.24 -41.11)"/></svg>