<svg viewBox="0 0 363.74 303.29" xmlns="http://www.w3.org/2000/svg" xmlns:xlink="http://www.w3.org/1999/xlink"><linearGradient id="a" gradientTransform="matrix(1 0 0 -1 0 352)" gradientUnits="userSpaceOnUse" x1="206.7" x2="203.96" y1="169.12" y2="145.92"><stop offset=".01"/><stop offset=".08" stop-opacity=".69"/><stop offset=".21" stop-opacity=".32"/><stop offset="1" stop-opacity="0"/></linearGradient><path d="m195.09 31.58a102.82 102.82 0 0 0 -19.56 2.2c-24.14 5.37-44.09 21.89-62.17 38.75-15.12 14.1-30 29.35-37.87 48.48-7.52 18.35-8 39.13-16.71 57-5.51 11.33-14 20.87-20.75 31.52-11.39 18-17.23 41.84-7.12 60.64 5.76 10.69 15.85 18.3 25.92 25.08 25.79 17.36 54.25 31.87 85 36.4 11.74 1.73 23.64 2 35.5 2.57 10.23.51 20.58 1.27 30.64-.64 25.17-4.78 44.23-25.14 67.56-35.72 16.59-7.53 35-9.93 52.62-14.45s35.64-11.86 46.72-26.34c9.89-12.93 12.66-29.36 14.38-45.13 1.66-15.19-7.64-29.41-13.33-43.38-12.3-30.19-25.15-60.74-47.6-85a161.55 161.55 0 0 0 -86.09-48.26 212.17 212.17 0 0 0 -37.46-3.73c-3.22-.06-6.45-.08-9.68.01z" fill="#0052cc" opacity=".18" transform="translate(-25.71 -31.52)"/><path d="m177.2 158.7a2.48 2.48 0 0 0 -2-2.06 3.45 3.45 0 0 0 -2.84.8 3 3 0 0 0 -1 1.57 4.35 4.35 0 0 0 .11 1.93 7.11 7.11 0 0 0 1 2.51c1 1.42 3.36 1.92 4.08 0a9.76 9.76 0 0 0 .07-1.87c.11-.98.68-1.87.58-2.88z" fill="#fca89e" transform="translate(-25.71 -31.52)"/><path d="m143 75.22 27.39 140.39a12.5 12.5 0 0 1 -9.87 14.66l-60.77 11.85a12.5 12.5 0 0 1 -14.68-9.83l-27.39-140.42a12.5 12.5 0 0 1 9.86-14.66l60.76-11.86a12.5 12.5 0 0 1 14.7 9.82z" fill="#0052cc" transform="translate(-25.71 -31.52)"/><rect fill="#473f47" height="163.52" rx="12.08" transform="matrix(.98149373 -.19149425 .19149425 .98149373 -53.01 -6.84)" width="83.47" x="72.28" y="71.83"/><path d="m139.6 79.16 25.84 132.45a11.54 11.54 0 0 1 -9.25 13.44l-54.54 10.64a11.65 11.65 0 0 1 -6-.38 11.37 11.37 0 0 1 -7.65-8.59l-25.83-132.46a11.55 11.55 0 0 1 9.27-13.44l9.21-1.82.35 1.68a5.52 5.52 0 0 0 4.4 4.26 5.66 5.66 0 0 0 2.17 0l25.32-4.94a5.61 5.61 0 0 0 4.44-6.49l-.33-1.59 9-1.74a11.73 11.73 0 0 1 8.51 1.57 11.29 11.29 0 0 1 5.09 7.41z" fill="#fff" transform="translate(-25.71 -31.52)"/><circle cx="88.3" cy="116.15" fill="#0052cc" opacity=".18" r="18.81"/><path d="m115.59 161.53-.65-3.36a9.73 9.73 0 0 1 -5.37-.44l.34-2.38a9 9 0 0 0 5 .44c2.38-.46 3.69-2.15 3.31-4s-1.88-2.7-4.54-3.21c-3.66-.65-6.06-1.76-6.62-4.64s1-5.24 3.94-6.36l-.65-3.35 2.06-.4.63 3.22a9.13 9.13 0 0 1 4.55.3l-.37 2.39a8.28 8.28 0 0 0 -4.41-.3c-2.55.5-3.21 2.24-2.94 3.56.34 1.73 1.75 2.35 4.86 3 3.71.7 5.77 2.08 6.37 5 .51 2.62-.82 5.44-4.12 6.69l.67 3.44z" fill="#0052cc" transform="translate(-25.71 -31.52)"/><path d="m359.24 92.07-22.74 144.55a12.79 12.79 0 0 1 -14.62 10.64l-62.56-9.85a12.78 12.78 0 0 1 -10.67-14.59l22.75-144.57a12.78 12.78 0 0 1 14.6-10.65l62.56 9.84a12.78 12.78 0 0 1 10.68 14.56z" fill="#0052cc" transform="translate(-25.71 -31.52)"/><rect fill="#473f47" height="85.39" rx="12.36" transform="matrix(.15540007 -.98785162 .98785162 .15540007 75.65 401.61)" width="167.28" x="220.33" y="114.59"/><g transform="translate(-25.71 -31.52)"><path d="m354.6 94.66-21.46 136.34a11.81 11.81 0 0 1 -13.59 9.69l-56.15-8.84a12 12 0 0 1 -5.62-2.45 11.62 11.62 0 0 1 -4.36-10.94l21.46-136.34a11.81 11.81 0 0 1 13.61-9.68l9.51 1.49-.27 1.71a5.68 5.68 0 0 0 2.75 5.64 6.24 6.24 0 0 0 2.09.75l26.09 4.1a5.74 5.74 0 0 0 6.54-4.69l.25-1.62 9.21 1.45a12 12 0 0 1 7.63 4.48 11.55 11.55 0 0 1 2.31 8.91z" fill="#fff"/><path d="m237 143.3h-5a1.5 1.5 0 0 1 0-3h5a1.5 1.5 0 0 1 0 3zm-10 0h-5a1.5 1.5 0 0 1 0-3h5a1.5 1.5 0 0 1 0 3zm-10 0h-5a1.5 1.5 0 0 1 0-3h5a1.5 1.5 0 0 1 0 3zm-10 0h-5a1.5 1.5 0 0 1 0-3h5a1.5 1.5 0 0 1 0 3zm-10 0h-5a1.5 1.5 0 0 1 0-3h5a1.5 1.5 0 0 1 0 3zm-10 0h-5a1.5 1.5 0 0 1 0-3h5a1.5 1.5 0 0 1 0 3z" fill="#0052cc"/><path d="m177.62 149.21a1.41 1.41 0 0 1 -1-.37l-6.76-5.91a1.5 1.5 0 0 1 -.11-2.13 1.14 1.14 0 0 1 .11-.11l6.76-6.19a1.5 1.5 0 0 1 2 2.21l-5.52 5.06 5.49 4.81a1.5 1.5 0 0 1 .16 2.1 1.47 1.47 0 0 1 -1.13.53z" fill="#0052cc"/><path d="m241.74 149.21a1.48 1.48 0 0 1 -1.13-.51 1.51 1.51 0 0 1 .14-2.12l5.5-4.81-5.52-5.06a1.5 1.5 0 0 1 2-2.21l6.76 6.19a1.53 1.53 0 0 1 .49 1.12 1.55 1.55 0 0 1 -.51 1.12l-6.76 5.91a1.5 1.5 0 0 1 -.97.37z" fill="#0052cc"/><path d="m233.93 250.16a29.5 29.5 0 1 1 -59 0 21.24 21.24 0 0 1 .08-2.26 29.49 29.49 0 0 1 58.89 2.26z" fill="#0052cc"/><path d="m192.05 263.55c-1 4.26.22 8.81-.66 13.05a29.6 29.6 0 0 1 -14.67-16.37 18.51 18.51 0 0 1 .11-4.4 11.67 11.67 0 0 0 0-4.71 10.83 10.83 0 0 0 -1.83-3.22 29.45 29.45 0 0 1 12.32-21.77 1.52 1.52 0 0 1 0 .6l-1.26 5.61a16.76 16.76 0 0 1 0 5 5.76 5.76 0 0 1 -2.74 4 15.44 15.44 0 0 0 -1.58.78 5 5 0 0 0 -1.2 1.44 12.19 12.19 0 0 0 -1.8 3.76 4.19 4.19 0 0 0 .94 3.89l8.22-1.6a2.62 2.62 0 0 1 2.49.37c.71.77.27 2 .42 3.05.2 1.32 1.38 2.28 1.93 3.51 1.01 2.23-.15 4.69-.69 7.01z" fill="#020202" opacity=".14"/><path d="m181.13 235a4.84 4.84 0 0 0 1.75 2 20.93 20.93 0 0 0 11.93 4.18 7.57 7.57 0 0 0 -3.81 1.82c-1 1-1.21 3-.06 3.8a3.33 3.33 0 0 0 1.35.52 12.25 12.25 0 0 0 6.57-.53 11.19 11.19 0 0 1 3.87-1.16 8.29 8.29 0 0 1 3.12.89 7.79 7.79 0 0 0 4.5.83c1.52-.31 2.9-1.77 2.58-3.28-.08-.36-.24-.75-.06-1.06a1.21 1.21 0 0 1 .56-.41l14-6.2c.89-.4 1.9-1 2-1.93s-.88-1.78-1.79-2.25c-4.81-2.51-10.42-2.83-15.84-3.1l-9.62-.47a83.91 83.91 0 0 0 -14 .1c-1.61.19-4.46.21-5.69 1.41a5.66 5.66 0 0 0 -1.36 4.84z" fill="#020202" opacity=".4"/><path d="m233.93 250.16a29.44 29.44 0 0 1 -11.23 23.16 3.66 3.66 0 0 1 -1-1 3 3 0 0 1 .8-4.17c-.5.26-2.45-.38-3-.47l-3-.47c-1.46-.23-4-.13-4.85-1.6a3.38 3.38 0 0 0 -.34-.58 2 2 0 0 0 -.63-.43c-.91-.44-2-.95-2.2-1.94-.15-.73.21-1.56-.16-2.2-.12-.21-.3-.36-.42-.56a1.89 1.89 0 0 1 .21-1.85c1.28-2.24 3.93-3.32 6.47-3.75s5.18-.37 7.65-1.09a34.35 34.35 0 0 1 4.66-1.43c.89-.12 2-.21 2.32-1 .19-.47 0-1 .19-1.5.08-.2.21-.38.29-.58a1.22 1.22 0 0 0 -.78-1.54l-.22-.05c.21-.55.38-1.26-.06-1.65a1.16 1.16 0 0 0 -1.08-.17 9.26 9.26 0 0 0 -2.71 1.79 7.43 7.43 0 0 1 -9.43-1.11 2.61 2.61 0 0 1 -.82-1.33 2.14 2.14 0 0 1 1.25-2.12 6 6 0 0 1 2.55-.5q-.49-3.21-1-6.42c-4.91 1.31-6.9-3.36-7.6-7.24s2.06-5.26 5.61-5.52a29.48 29.48 0 0 1 18.53 27.32z" fill="#020202" opacity=".14"/><path d="m195.69 192.51h18.91a4.93 4.93 0 0 1 5 4.86v.14s-3.6 14.71-3.6 19.65c0 2.71.85 10.79.85 10.79h-23.39s1.08-8.45 1.06-11.28c0-4.82-3.86-19.17-3.86-19.17a4.93 4.93 0 0 1 4.87-5z" fill="#0052cc"/><path d="m194.78 223.28c.94 0 1.87-.16 2.8-.24 1.21-.11 2.42-.09 3.64-.08l19.32.24a5.75 5.75 0 0 1 2.14.29 2 2 0 0 1 1.32 1.57c.09.93-.69 1.69-1.43 2.26a26.39 26.39 0 0 1 -11.65 5.1c-6.52 1.11-13.21-.27-19.59-2a7.72 7.72 0 0 1 -2.87-1.23 19.22 19.22 0 0 1 -2.1-2.49 8.22 8.22 0 0 1 -1.55-1.92c-1.75-4.13 8.47-1.49 9.97-1.5z" fill="#473f47"/><path d="m208.06 195.27a2.16 2.16 0 0 1 -2.35 1.88c-2.32-.11-2.48-1.88-2.48-1.88v-9.21h4.83z" fill="#fca89e"/><path d="m203.23 190.61s3 4.72 4.83 2.45v-3.68z" fill="url(#a)"/><path d="m201.19 188.27c1.21 3.75 7.23 3.86 9.25.88a8.23 8.23 0 0 0 .95-6 20.76 20.76 0 0 0 -1.84-5.85c-.62-1.16-1.25-2.19-2.65-2.36a8.35 8.35 0 0 0 -4.62 1 6.74 6.74 0 0 0 -3 3.28 6.61 6.61 0 0 0 -.21 4.41 13.46 13.46 0 0 0 .91 2.1 18.46 18.46 0 0 1 1.21 2.54z" fill="#fca89e"/><path d="m203 240a8.12 8.12 0 0 1 -2.21 1.23c-1.69.71-5 2-4.55 3.5.68 2 3 1.82 4.61 1.35a30.47 30.47 0 0 0 6.94-3.42z" fill="#473f47"/><path d="m207.1 234.91c5.75-4.2 8.75-7.3 15.21-11.23 1.53-.93 2.59-1.21 5.25-.16 2.27.89 2 4.79.79 6.42-3.72 4.88-18 11.62-20.92 12.64-1.25.44-5.66-3.27-3.87-5.05a31.12 31.12 0 0 1 3.54-2.62z" fill="#473f47"/><path d="m204.44 243a19.68 19.68 0 0 0 3 3.12c2 1.5 3.29 2 4.87 1.27 2.3-1.07.19-3.32-1.59-5.11a24.92 24.92 0 0 0 -4.53-3.73z" fill="#473f47"/><path d="m204.74 237.48 2.45 2a5.88 5.88 0 0 1 1.28 1.49c.8 1.49-2 4.53-3.75 2.74s-3.4-3.7-3.4-3.7z" fill="#fca89e"/><path d="m197.42 240.68c-6.68-3.36-10.78-4.58-15.07-10.63a7.09 7.09 0 0 1 -1.11-5.35c.52-1.55 2.78-2.48 5.45-1.84 2.24.53 17.25 12.29 19.59 14.51 1 1-2.06 5.73-4.59 4.91a24.93 24.93 0 0 1 -4.27-1.6z" fill="#473f47"/><path d="m211.17 176.91a5.18 5.18 0 0 1 -1.12 1.66 6.45 6.45 0 0 1 -3.59 1.75 25.64 25.64 0 0 1 -6-.2 1.74 1.74 0 0 1 -1.17 1.4 29.18 29.18 0 0 0 1.2 4.07c.48 1.31 1.18 2.51 1.71 3.79-1.64-1.13-2.89-3.06-4.08-4.62a8.69 8.69 0 0 1 -1.51-2.49 3.06 3.06 0 0 1 .27-2.8 3.27 3.27 0 0 0 .65-.95 2.37 2.37 0 0 0 0-.92 4.9 4.9 0 0 1 1.7-3.85 9.69 9.69 0 0 1 3.84-2 8.47 8.47 0 0 1 3.77-.41 6.24 6.24 0 0 1 4.43 4.18 2.44 2.44 0 0 1 -.1 1.39z" fill="#473f47"/><path d="m199.89 185.8a1.61 1.61 0 0 0 -1.06.68 1.17 1.17 0 0 0 -.05.9 2.78 2.78 0 0 0 .46.8 1.62 1.62 0 0 0 .37.37 1.55 1.55 0 0 0 .81.2h.65a.62.62 0 0 0 .32-.09.68.68 0 0 0 .22-.31 2.27 2.27 0 0 0 0-1.41 2.52 2.52 0 0 0 -.61-1.15c-.28-.26-.74-.09-1.11.01z" fill="#fca89e"/></g><rect fill="#473f47" height="12.62" rx="1.24" width="6.55" x="197.29" y="149.54"/><path d="m172.05 161.79-14.67-14.07-6.07-15.96-4.89.94 5.79 18.59 16.4 22.45z" fill="#0052cc"/><circle cx="279.69" cy="117.69" fill="#0052cc" opacity=".18" r="18.81"/><path d="m302.24 162.8.51-3.39a9.78 9.78 0 0 1 -4.91-2.21l1.12-2.13a9 9 0 0 0 4.6 2.1c2.39.36 4.19-.79 4.47-2.7s-.87-3.17-3.21-4.54c-3.23-1.84-5.12-3.69-4.68-6.6s2.68-4.6 5.84-4.66l.51-3.38 2.08.32-.49 3.24a9.2 9.2 0 0 1 4.19 1.8l-1.15 2.13a8.2 8.2 0 0 0 -4.05-1.75c-2.58-.39-3.78 1-4 2.36-.26 1.74.86 2.8 3.59 4.43 3.25 1.9 4.73 3.89 4.31 6.88-.4 2.64-2.59 4.86-6.12 4.93l-.52 3.47z" fill="#0052cc" transform="translate(-25.71 -31.52)"/><path d="m93.53 188.37h61.5v17.55h-61.5z" fill="#0052cc" transform="matrix(.98044329 -.19680182 .19680182 .98044329 -62.07 -3.21)"/><path d="m284.13 169.52h3.65v26.84h-3.65z" fill="#0052cc" transform="matrix(.14401078 -.98957612 .98957612 .14401078 38.03 408.05)"/><path d="m311.62 175.61h3.65v22.67h-3.65z" fill="#0052cc" transform="matrix(.14401078 -.98957612 .98957612 .14401078 57.6 438.69)"/><path d="m279.81 179.77h3.65v20.29h-3.65z" fill="#0052cc" transform="matrix(.14401078 -.98957612 .98957612 .14401078 27.43 409.74)"/><path d="m299.25 185.65h3.65v14.19h-3.65z" fill="#0052cc" transform="matrix(.14401078 -.98957612 .98957612 .14401078 41.27 431.4)"/><path d="m315.93 189.28h3.65v11.79h-3.65z" fill="#0052cc" transform="matrix(.14401078 -.98957612 .98957612 .14401078 53.15 449.99)"/><path d="m282.83 183.68h3.65v28.58h-3.65z" fill="#0052cc" transform="matrix(.14401078 -.98957612 .98957612 .14401078 22.05 419.63)"/><path d="m311.22 190.29h3.65v21.01h-3.65z" fill="#0052cc" transform="matrix(.14003722 -.99014624 .99014624 .14003722 44.69 451.11)"/><path d="m293.6 180.86h3.65v52.54h-3.65z" fill="#0052cc" transform="matrix(.14401078 -.98957612 .98957612 .14401078 22.2 438.13)"/><path d="m227.49 186.81a2.51 2.51 0 0 1 2-2.06 3.42 3.42 0 0 1 2.83.8 3.07 3.07 0 0 1 1 1.57 4.21 4.21 0 0 1 -.12 1.93 7.19 7.19 0 0 1 -1 2.51c-1 1.42-3.36 1.92-4.09 0a9.76 9.76 0 0 1 -.07-1.87c-.04-.98-.65-1.87-.55-2.88z" fill="#fca89e" transform="translate(-25.71 -31.52)"/><path d="m214.92 192.57c.14-.83.89-.63 2.4.15a51 51 0 0 1 10.15 7.38c.21-3.33.27-6.68.18-10 2.29-.15 3.61.38 5.77 1.17a52.18 52.18 0 0 1 -1.37 14.25c-.42 1.62-1 3.47-2.62 4-2 .67-3.79-1.08-5.54-2.18-1.59-1-4.19-1.06-5.46-2.42-1-1-1.11-3-1.48-4.28-.62-2.16-1.45-4.35-1.89-6.55a4.88 4.88 0 0 1 -.14-1.52z" fill="#0052cc" transform="translate(-25.71 -31.52)"/></svg>