<svg viewBox="0 0 374.24 306.74" xmlns="http://www.w3.org/2000/svg" xmlns:xlink="http://www.w3.org/1999/xlink"><linearGradient id="a" gradientTransform="matrix(1 0 0 -1 0 352)" gradientUnits="userSpaceOnUse" x1="119.32" x2="122.41" y1="148.05" y2="-55.23"><stop offset=".01"/><stop offset=".08" stop-opacity=".69"/><stop offset=".21" stop-opacity=".32"/><stop offset="1" stop-opacity="0"/></linearGradient><linearGradient id="b" gradientTransform="matrix(-1 0 -0 -1 -505.61 352)" x1="-737.38" x2="-734.81" xlink:href="#a" y1="90.09" y2="88.16"/><linearGradient id="c" gradientTransform="matrix(-1 0 -0 -1 -505.61 352)" x1="-982.47" x2="-328.94" xlink:href="#a" y1="326.9" y2="-161.88"/><linearGradient id="d" gradientTransform="matrix(-1 0 -0 -1 -505.61 352)" x1="-762.66" x2="-694.83" xlink:href="#a" y1="184.94" y2="-30.49"/><linearGradient id="e" gradientTransform="matrix(-1 0 -0 -1 -532.09 335.01)" x1="-724.19" x2="-765.66" xlink:href="#a" y1="225.84" y2="-54.52"/><linearGradient id="f" gradientTransform="matrix(-1 0 -0 -1 -532.09 335.01)" x1="-765.32" x2="-797.28" xlink:href="#a" y1="186.64" y2="-29.39"/><linearGradient id="g" gradientTransform="matrix(-1 0 -0 -1 -505.61 352)" x1="-787.53" x2="-804.53" xlink:href="#a" y1="122.49" y2="78.76"/><linearGradient id="h" gradientTransform="matrix(-1 0 -0 -1 -505.61 352)" x1="-712.32" x2="-639.47" xlink:href="#a" y1="295.39" y2="-340.86"/><linearGradient id="i" x1="224.71" x2="107.66" xlink:href="#a" y1="268.52" y2="67.13"/><linearGradient id="j" gradientTransform="matrix(1 0 0 -1 -26.48 335.01)" x1="189.86" x2="226.57" xlink:href="#a" y1="254.1" y2="134.07"/><linearGradient id="k" gradientTransform="matrix(1 0 0 -1 0 352)" gradientUnits="userSpaceOnUse" x1="202.6" x2="367.36" y1="221.13" y2="55.32"><stop offset="0" stop-color="#fff" stop-opacity="0"/><stop offset=".54" stop-color="#fff"/></linearGradient><linearGradient id="l" gradientTransform="matrix(1 0 0 -1 0 352)" gradientUnits="userSpaceOnUse" x1="224.95" x2="220.16" y1="119.19" y2="216.78"><stop offset=".01"/><stop offset=".13" stop-opacity=".69"/><stop offset=".25" stop-opacity=".32"/><stop offset="1" stop-opacity="0"/></linearGradient><linearGradient id="m" x1="291.73" x2="275.79" xlink:href="#l" y1="112.6" y2="151.72"/><linearGradient id="n" x1="98.76" x2="120.94" xlink:href="#a" y1="129.88" y2="129.88"/><linearGradient id="o" x1="89.54" x2="97.96" xlink:href="#a" y1="129.68" y2="129.68"/><linearGradient id="p" x1="86.84" x2="108.8" xlink:href="#a" y1="188.87" y2="127.49"/><linearGradient id="q" x1="148.71" x2="163.73" xlink:href="#k" y1="96.14" y2="162.02"/><linearGradient id="r" x1="146.63" x2="161.65" xlink:href="#k" y1="96.61" y2="162.49"/><linearGradient id="s" x1="150.08" x2="165.09" xlink:href="#k" y1="95.82" y2="161.71"/><linearGradient id="t" x1="147.9" x2="162.92" xlink:href="#k" y1="96.32" y2="162.2"/><linearGradient id="u" x1="147.45" x2="162.46" xlink:href="#k" y1="96.42" y2="162.31"/><linearGradient id="v" x1="136.58" x2="151.6" xlink:href="#k" y1="98.9" y2="164.78"/><linearGradient id="w" x1="137.12" x2="152.13" xlink:href="#k" y1="98.77" y2="164.66"/><linearGradient id="x" x1="112.46" x2="127.47" xlink:href="#k" y1="104.4" y2="170.28"/><linearGradient id="y" x1="113.57" x2="128.59" xlink:href="#k" y1="104.15" y2="170.03"/><linearGradient id="z" x1="122.23" x2="137.25" xlink:href="#k" y1="102.17" y2="168.05"/><linearGradient id="A" x1="104.71" x2="119.73" xlink:href="#k" y1="106.16" y2="172.05"/><linearGradient id="B" x1="118.28" x2="133.3" xlink:href="#k" y1="103.07" y2="168.96"/><linearGradient id="C" x1="116.2" x2="131.22" xlink:href="#k" y1="103.54" y2="169.43"/><linearGradient id="D" x1="119.66" x2="134.67" xlink:href="#k" y1="102.76" y2="168.64"/><linearGradient id="E" x1="117.46" x2="132.48" xlink:href="#k" y1="103.25" y2="169.14"/><linearGradient id="F" x1="135.33" x2="150.34" xlink:href="#k" y1="99.18" y2="165.07"/><linearGradient id="G" x1="133.22" x2="148.23" xlink:href="#k" y1="99.66" y2="165.55"/><linearGradient id="H" x1="136.68" x2="151.7" xlink:href="#k" y1="98.88" y2="164.76"/><linearGradient id="I" x1="134" x2="149.02" xlink:href="#k" y1="99.49" y2="165.37"/><path d="m197 17.31a218.94 218.94 0 0 0 -104.33 33c-14.67 9.3-28.56 20.62-37.67 35.43s-12.88 33.57-7 49.91c3.51 9.71 10.11 17.95 14.82 27.13s7.42 20.48 2.73 29.67c-5.38 10.64-18.36 14.55-27.55 22.21-14.59 12.14-12.93 23.1-8 38.94 4.27 13.84 11.13 25.82 22.26 35.28 21.74 18.48 51.84 24.19 79.17 28.73 39.6 6.58 80.2 8.3 120.06 3 19.51-2.58 37.72-8 56.63-12.77 18.48-4.63 37.1-10.41 52.86-21.45a93.21 93.21 0 0 0 28.4-120.88c-15.76-29-45.66-47.7-63.83-75.21-10.68-16.16-17.11-35.07-29.55-49.88-11.43-13.42-41.59-18.7-57.94-21.24a188.43 188.43 0 0 0 -24.76-2.13c-5.43-.12-10.87-.05-16.3.26z" fill="#0052cc" opacity=".18" transform="translate(-26.48 -16.99)"/><path d="m88.8 243.69c3.58 2.58 7.17 5.16 10.94 7.45 6.83 4.15 14.19 7.34 21.52 10.51 2.14.92 4.29 1.85 6.44 2.74a11.82 11.82 0 0 0 4.4 1.16c3.35 0 6-2.62 9-4.2 2.61-1.39 5.57-2 8.21-3.3 1-.48 2-1.28 1.91-2.35s-1-1.58-1.87-2c-7.61-4-15.9-6.65-24.13-9.22a10.52 10.52 0 0 0 -4.11-.72c-2.63.24-4.68 2.33-7.17 3.21a13.33 13.33 0 0 1 -5.14.52c-6.88-.37-13.17-3.73-20-3.8z" fill="url(#a)" transform="translate(-26.48 -16.99)"/><path d="m231.08 262.5-.57.08c-.42.33.75.42.57-.08z" fill="url(#b)" transform="translate(-26.48 -16.99)"/><path d="m103.86 196.1c4.27 1.71 8.76 3.37 11.53 5.33l65.61 46.07a157.54 157.54 0 0 0 15.68 10c4.42 2.39 6.94 7 12.3 8.16a21.31 21.31 0 0 0 8-.14 74.82 74.82 0 0 0 12.68-3.22c.51-.17 1.22-.28 1.45.21 38.21-5.22 74.75-19.09 112.63-26.31a2.08 2.08 0 0 0 .39-4 51.36 51.36 0 0 0 -9.78-2.4c-6-1.12-12.07-2.21-18.13-3.2a307.38 307.38 0 0 0 -36.93-4.1c-20.56-.83-41.3 1.33-61.63-1.86-19.32-3-37.54-10.75-55.52-18.46-4.33-1.86-8.75-3.79-12.15-7-2.66-2.55-4.8-5.94-8.2-7.62s-7.78-1.44-11.6-1.26a172.4 172.4 0 0 0 -22.4 3c-1.4 2.2-2.7 4.49-3.93 6.8z" fill="url(#c)" transform="translate(-26.48 -16.99)"/><path d="m342 223.26-85.82-37.33a10.27 10.27 0 0 0 -6-1l-106.18 9.07c-2 .29-1.67 9 0 10.42l62.69 53.36a15.75 15.75 0 0 0 14 3.52l120.57-29.3c1.53-.42 2.19-8 .74-8.74z" fill="#0052cc" transform="translate(-26.48 -16.99)"/><path d="m342 223.26-85.82-37.33a10.27 10.27 0 0 0 -6-1l-106.18 9.07c-2 .29-1.67 9 0 10.42l62.69 53.36a15.75 15.75 0 0 0 14 3.52l120.57-29.3c1.53-.42 2.19-8 .74-8.74z" fill="url(#d)" transform="translate(-26.48 -16.99)"/><path d="m144 198.18 62.68 53.36a15.71 15.71 0 0 0 14 3.51l120.52-29.29a2 2 0 0 0 1.06-2.62 2 2 0 0 0 -.76-.9l-33.05-18.65-8.67-4.87-26.39-14.89a10.27 10.27 0 0 0 -6-1l-122.3 10.65c-2.04.29-2.71 3.3-1.09 4.7z" fill="#0052cc" transform="translate(-26.48 -16.99)"/><path d="m240.96 168.79-111.84 16.55 34.43 27.94 114.77-23.22z" fill="url(#e)"/><path d="m252.66 197-46.09 9.31 23.83 19.44 47.92-10.75z" fill="url(#f)"/><path d="m302.18 235.36a7.43 7.43 0 0 1 -4.75 3.89c-3.38.81-23.12 5.86-23.12 5.86s-3.21.39-5-1.76z" fill="url(#g)" transform="translate(-26.48 -16.99)"/><path d="m270.94 182.83-126.21 18a3.67 3.67 0 0 1 -4.1-2.91l-18-90.92a7 7 0 0 1 5.44-8.27 6.21 6.21 0 0 1 .85-.12l124.64-11a7 7 0 0 1 7.62 6.25z" fill="#0052cc" transform="translate(-26.48 -16.99)"/><path d="m270.94 182.83-125.88 17.91a4 4 0 0 1 -4.5-3.19l-17.94-90.55a7 7 0 0 1 5.44-8.27 6.21 6.21 0 0 1 .85-.12l124.65-11a7 7 0 0 1 7.62 6.25z" fill="url(#h)" transform="translate(-26.48 -16.99)"/><path d="m120.52 178.57-17.92-91.74 127.44-8.86 10.11 86.85z" fill="#fff"/><path d="m324.81 158.89a33.44 33.44 0 1 1 -66.88 0 21.57 21.57 0 0 1 .1-2.55 33.44 33.44 0 0 1 66.78 2.55z" fill="#0052cc" transform="translate(-26.48 -16.99)"/><path d="m277.31 174.08c-1.1 4.83.25 10-.74 14.8a33.59 33.59 0 0 1 -16.64-18.56 20.4 20.4 0 0 1 .13-5 13.34 13.34 0 0 0 .05-5.34 12.25 12.25 0 0 0 -2.08-3.65 33.38 33.38 0 0 1 14-24.7 1.94 1.94 0 0 1 0 .68l-1.43 6.37a19.38 19.38 0 0 1 0 5.69 6.58 6.58 0 0 1 -3.1 4.57 13.68 13.68 0 0 0 -1.8.89 5.77 5.77 0 0 0 -1.36 1.63 13.42 13.42 0 0 0 -2 4.26 4.77 4.77 0 0 0 1.06 4.41l9.32-1.81c1-.19 2.16-.32 2.83.42s.3 2.27.48 3.45c.22 1.51 1.56 2.59 2.18 4 1.03 2.47-.28 5.25-.9 7.89z" fill="#020202" opacity=".14" transform="translate(-26.48 -16.99)"/><path d="m324.81 158.89a33.37 33.37 0 0 1 -12.74 26.27 4.27 4.27 0 0 1 -1.16-1.16 3.41 3.41 0 0 1 .92-4.73c-.56.29-2.77-.43-3.43-.54l-3.44-.53c-1.65-.25-4.53-.15-5.49-1.81a3.86 3.86 0 0 0 -.39-.65 2.06 2.06 0 0 0 -.71-.49c-1-.51-2.25-1.08-2.5-2.21-.17-.82.24-1.76-.18-2.5-.14-.22-.34-.4-.47-.63a2.14 2.14 0 0 1 .23-2.1c1.45-2.54 4.46-3.76 7.34-4.25s5.86-.41 8.67-1.23a37.56 37.56 0 0 1 5.29-1.62c1-.14 2.26-.24 2.63-1.19.21-.53 0-1.16.22-1.7.08-.23.23-.44.32-.67a1.38 1.38 0 0 0 -.89-1.73 1.22 1.22 0 0 0 -.26-.06c.23-.63.42-1.43-.07-1.88a1.33 1.33 0 0 0 -1.22-.19c-1.2.31-2.07 1.32-3.08 2-3.34 2.37-7.91 1.53-10.7-1.26a3 3 0 0 1 -.93-1.51 2.43 2.43 0 0 1 1.42-2.4 7 7 0 0 1 2.89-.57l-1.1-7.25c-5.56 1.49-7.82-3.8-8.61-8.2s2.33-6 6.36-6.27a33.46 33.46 0 0 1 21.08 31.06z" fill="#020202" opacity=".14" transform="translate(-26.48 -16.99)"/><path d="m164.69 161.42c1 9 1.06 18.11 2.67 27 .37 2 1 4.28 2.78 5.29a7.16 7.16 0 0 0 4.52.4 93.67 93.67 0 0 0 27.43-8.18 181 181 0 0 0 -11.09-34.76c-1.27-2.9-2.66-5.84-4.92-8.06-3.43-3.36-8.18-4.42-12.74-5.32-2.37-.47-4.78-.79-7.13-1.39-1.45-.37-5.57-2.79-6.77-2.56-4 .75 0 7.07 1 9.52a66 66 0 0 1 4.25 18.06z" fill="url(#i)" transform="translate(-26.48 -16.99)"/><path d="m222.05 114.03-95.31 9.03-2.43-11.14 95.32-9.04z" fill="#0052cc"/><path d="m222.05 114.03-95.31 9.03-2.43-11.14 95.32-9.04z" fill="url(#j)"/><path d="m238.25 124.49c7.36-.79 14.49 3.9 18.43 10.16s5 9.29 5.5 16.67c.16 2.4.36 5.06 2.13 6.69 2.95 2.71 7.56.6 11.42-.46 9.15-2.52 19.78 2.84 23.2 11.7 3.34 8.65-1.44 21.49 6.16 26.81 6.77 4.72 25-6.67 30.71-16.92 0 0 1.66 22.51-16.11 33.76-26.37 16.7-75.8 23.19-81 22.63-8.65-.95-18.09-3.95-22.23-11.6s-1.46-17.27-1.46-26.1c0-5.08-2.29-11.44-7.37-11.55-3.8-.09-6.55 3.53-8.32 6.89s-3.62 7.23-7.23 8.43c-3.22 1.07-6.88-.52-9.09-3.09s-3.22-6-3.9-9.29c-2.35-11.54-1.28-23.53-3.17-35.16-.72-4.42-2-8.95-5-12.26s-10.05-8.21-15.43-8z" fill="#0052cc" transform="translate(-26.48 -16.99)"/><path d="m238.25 124.49c7.36-.79 14.49 3.9 18.43 10.16s5 9.29 5.5 16.67c.16 2.4.36 5.06 2.13 6.69 2.95 2.71 7.56.6 11.42-.46 9.15-2.52 19.78 2.84 23.2 11.7 2.78 7.2 1.12 15.28 3.81 22.49 1.56 4.2 4.07 4.7 8.44 4.39a24.31 24.31 0 0 0 11.82-4.42c5.23-3.61 9.25-8.68 13.19-13.67-.93 6.15-.77 12.54-2.86 18.39-3.45 9.68-12.4 16.24-21.33 21.33a164 164 0 0 1 -48.79 18.24c-8 1.62-16.38.37-24.48-.51-8.65-1-18.09-4-22.23-11.6s-1.45-17.27-1.42-26.1c0-5.08-2.29-11.44-7.37-11.55-3.8-.09-6.55 3.53-8.32 6.89s-3.62 7.23-7.23 8.43c-3.22 1.07-6.88-.52-9.09-3.09s-3.22-6-3.9-9.29c-2.35-11.54-1.28-23.53-3.17-35.16-.72-4.42-2-9-5-12.26s-10.05-8.21-15.43-8z" fill="url(#k)" transform="translate(-26.48 -16.99)"/><path d="m269.32 159.24-62.15 23.5s-3.43.83-7.78 10.43-19.86 13-20.65-17.64-2.41-28.7-6.3-35.06l89.56 8.86s-.59 12.16 7.32 9.91z" fill="url(#l)" transform="translate(-26.48 -16.99)"/><path d="m160.85 135.06c2.8 3.21 4.28 7.34 5.4 11.45 3.47 12.6 4.22 25.81 3.94 38.89-.1 4.65-.31 9.4 1 13.85a20.94 20.94 0 0 0 13.68 13.81c3.75 1.16 7.88 1.27 11.25 3.28 6.67 4 7.51 13.37 12.56 19.28 6.79 7.94 20.37 8.69 25 18" fill="none" transform="translate(-26.48 -16.99)"/><path d="m165.55 121.84 46.96-5.01" fill="none" stroke="#473f47" stroke-linecap="round" stroke-linejoin="round" stroke-width="2"/><path d="m170.92 136.88 46.96-5.01" fill="none" stroke="#473f47" stroke-linecap="round" stroke-linejoin="round" stroke-width="2"/><path d="m173.18 146.91 46.97-5.01" fill="none" stroke="#473f47" stroke-linecap="round" stroke-linejoin="round" stroke-width="2"/><path d="m205.77 125.67 9.12-.97" fill="none" stroke="#473f47" stroke-linecap="round" stroke-linejoin="round" stroke-width="2"/><path d="m187.52 127.62 12.36-1.32" fill="none" stroke="#473f47" stroke-linecap="round" stroke-linejoin="round" stroke-width="2"/><path d="m167.92 129.71 11.04-1.18" fill="none" stroke="#473f47" stroke-linecap="round" stroke-linejoin="round" stroke-width="2"/><path d="m208.46 166.91 45.98-17.07" fill="none" stroke="#473f47" stroke-linecap="round" stroke-linejoin="round" stroke-width="2"/><path d="m212.19 181.86 45.98-17.07" fill="none" stroke="#473f47" stroke-linecap="round" stroke-linejoin="round" stroke-width="2"/><path d="m213.4 192.16 45.99-17.07" fill="none" stroke="#473f47" stroke-linecap="round" stroke-linejoin="round" stroke-width="2"/><path d="m247.05 161.08 8.92-3.31" fill="none" stroke="#473f47" stroke-linecap="round" stroke-linejoin="round" stroke-width="2"/><path d="m229.18 167.71 12.1-4.49" fill="none" stroke="#473f47" stroke-linecap="round" stroke-linejoin="round" stroke-width="2"/><path d="m209.99 174.84 10.81-4.02" fill="none" stroke="#473f47" stroke-linecap="round" stroke-linejoin="round" stroke-width="2"/><path d="m331.48 184.83s-43 38.38-72 34.29c0 0-23.83 26.91-33.17 11.16s6.69-25.89 6.69-25.89l69.69-12.65s4.62 15.55 28.79-6.91z" fill="url(#m)" opacity=".45" transform="translate(-26.48 -16.99)"/><path d="m120.43 248.35c.09 1.16 1.74 1.18 3.61 1s1.37.26 4 .29 3.53-.83 3.66-1.2-1.15-.61-2.5-.94l-.52-.13c-1.52-.39-2.53-1.53-3.83-2.52s-2.82-4.36-2.82-4.36l-3.59-.16s1.51 3.06 2.08 4.38a4.47 4.47 0 0 1 0 2.46 4.67 4.67 0 0 0 -.09 1.18z" fill="#ffb27d" transform="translate(-26.48 -16.99)"/><path d="m124 249.31c1.87-.22 1.37.26 4 .29s3.53-.83 3.66-1.2-1.15-.61-2.5-.94a7.41 7.41 0 0 1 -3.85.69c-1.76-.18-3.55-.91-4.76-1a4.56 4.56 0 0 0 -.13 1.22c.1 1.14 1.75 1.16 3.58.94z" fill="#473f47" transform="translate(-26.48 -16.99)"/><path d="m96.58 247.17.39.2a27.41 27.41 0 0 0 5 1.66 4.21 4.21 0 0 0 1.73.13 2.49 2.49 0 0 0 1-.44c.14-.11.28-.28.2-.43a.33.33 0 0 0 -.12-.14c-.76-.61-1.71-.8-2.51-1.35s-1.44-1.18-2.18-1.74c-1.24-.95 0-6.54 0-6.54l-3.93-.38s.18 4.71.18 6.84c0 .64-.54 1.5 0 2a.88.88 0 0 0 .24.19z" fill="#ffb27d" transform="translate(-26.48 -16.99)"/><path d="m99.33 249.51a17.09 17.09 0 0 0 2.2.82 7.26 7.26 0 0 0 2.26.4 3.33 3.33 0 0 0 2.15-.71.69.69 0 0 0 .3-.49.82.82 0 0 0 -.19-.47 4.14 4.14 0 0 0 -1.39-1.24c-.29-.14-.46 0-.74.15a5.76 5.76 0 0 1 -1 .3 7.33 7.33 0 0 1 -6.6-1.94s-.07-.09-.12-.1-.2.1-.22.22a1.38 1.38 0 0 0 .2 1.1 2.47 2.47 0 0 0 .69.64 14.56 14.56 0 0 0 2.46 1.32z" fill="#473f47" transform="translate(-26.48 -16.99)"/><path d="m107.32 152a10.61 10.61 0 0 0 .1-1.87 4 4 0 0 0 -.48-1.85c-.21-.38-.79-.73-.94-1.08a8.64 8.64 0 0 0 -5.55-4.48 9.81 9.81 0 0 0 -5.16.69 3.26 3.26 0 0 0 -1.18.58 2.94 2.94 0 0 0 -.67 1.06 21.83 21.83 0 0 0 -1 2.58 7.67 7.67 0 0 0 -3-2.63 4.37 4.37 0 0 0 -4.21.82 5.64 5.64 0 0 0 -1.9 3.92 12 12 0 0 1 -.22 2.87 3.16 3.16 0 0 1 -2.54 2.1 5.12 5.12 0 0 0 5.18 2.19 20.09 20.09 0 0 1 -1.2 2.3 5.67 5.67 0 0 0 3.85-.26 5.76 5.76 0 0 0 1.82-2.16l-.83 1.81c1.44-1.36 1.08-4 2.58-5.27.43.21.59.74.89 1.11s1 .5 1.16 0a6.76 6.76 0 0 0 1.12 3.19 4.36 4.36 0 0 0 3.76 1.7c.27 0 .61-.2.52-.44.65-.14 1-.84 1.58-1.19.75-.47 1.72-.24 2.6-.39a3.93 3.93 0 0 0 2.53-1.86 8.44 8.44 0 0 0 1.19-3.44z" fill="#fc682d" transform="translate(-26.48 -16.99)"/><path d="m104.64 162.55a5.9 5.9 0 0 1 -3.66.66 4.74 4.74 0 0 1 -2.44-2.33c.63-.13.81-1 .8-4.71l.28.06 4.79.94s-.11 1.51-.11 2.93c-.01 1.19.07 2.32.34 2.45z" fill="#ffb27d" transform="translate(-26.48 -16.99)"/><path d="m104.41 157.17s-.11 1.51-.11 2.93c-2.68-.08-4.1-2.52-4.68-3.87z" fill="#ed975d" transform="translate(-26.48 -16.99)"/><path d="m123.88 242.35a1.19 1.19 0 0 1 -.78 1.48.93.93 0 0 1 -.29 0l-1.87.09-2 .06a1.55 1.55 0 0 1 -1.28-.59 55.29 55.29 0 0 1 -9.39-17.77c-.08-.26-.17-.53-.26-.8-2-5.67-6-12.8-8.11-19.25-.34-1-.64-2-.92-2.9-.08-.3-.17-.59-.25-.87a68.51 68.51 0 0 1 -2.41-12.8l15.36.12a337.26 337.26 0 0 0 12.2 53.23z" fill="#473f47" transform="translate(-26.48 -16.99)"/><path d="m109.53 180.31c0 7.31 1.07 10.44 1.07 10.44a20.63 20.63 0 0 1 -14.39.88l-6.47-1.48c.13-.3 1.29-5.22 1.42-5.49 1.65-3.55 2.9-5.1 3.1-6.19a23.23 23.23 0 0 0 .19-6.12 49.1 49.1 0 0 0 -1.9-9.61 50.4 50.4 0 0 0 6.34-2.17 5 5 0 0 0 3.42 1.27c1.56 0 2.06-.7 2-1.43 1.66.92 3 1.79 3 1.79 1.41 2.45 4.27 4.83 4.47 8.59.02.92-2.25 9.32-2.25 9.52z" fill="#fff" transform="translate(-26.48 -16.99)"/><path d="m96.32 181.12c-.67.95-2 6.73-5.16 7.46 1.65-4.12 2.9-5.93 3.1-7.19a31.32 31.32 0 0 0 .19-7.11c1.07-1.88 1.87-3.17 1.87-3.17.09-.3 1.7-5.31 2.22-.83a20.66 20.66 0 0 1 -2.22 10.84z" fill="#0052cc" transform="translate(-26.48 -16.99)"/><path d="m105.3 158.52s-6.33.1-6.34-3.84-.82-6.59 3.22-6.83 4.84 1.27 5.16 2.59-.34 7.95-2.04 8.08z" fill="#ffb27d" transform="translate(-26.48 -16.99)"/><path d="m105.07 147.76s-1.74 4.63-4.4 5.31-3.81 0-3.81 0a7.54 7.54 0 0 0 2.46-4.45s4.44-3.07 5.75-.86z" fill="#fc682d" transform="translate(-26.48 -16.99)"/><path d="m104.64 148.13a5.79 5.79 0 0 1 1.61 2c.32 1 .46 3.07 1.06 3 0 0 1.31-3.14-.16-4.92s-2.51-.08-2.51-.08z" fill="#fc682d" transform="translate(-26.48 -16.99)"/><path d="m91.32 166.15 4.75 8.35-1.54 1-6.45-6.91z" fill="#ffb27d"/><path d="m105.18 161.51s3.73.67 5.17 2.6 5.86 16 6.76 17.33 1.59 2.43 1.59 2.43a7.37 7.37 0 0 1 -3.17 2.28c-1.73.47-10.35-24.64-10.35-24.64z" fill="#0052cc" transform="translate(-26.48 -16.99)"/><path d="m104.29 160.41s3.67 9.05 3.78 10.89.43 30 .43 30-.22 1.29 2.26.75a8.32 8.32 0 0 0 3.13-1.07s-2.37-17.36-1.73-23.39-5-15.88-5-15.88z" fill="#0052cc" transform="translate(-26.48 -16.99)"/><path d="m120.94 244-2.14.06a1.2 1.2 0 0 1 -1-.45 55.45 55.45 0 0 1 -9.5-17.91c-.08-.26-.17-.53-.26-.8-2-5.67-6-12.8-8.11-19.25-.34-1-.64-2-.92-2.9-.08-.3-.17-.59-.25-.87l2.26-1.71s6.79 11 8.89 21.34c1.83 8.95 9.14 19.77 11.03 22.49z" fill="url(#n)" transform="translate(-26.48 -16.99)"/><path d="m101.26 222.44c0 4.76-.19 15.37-.77 20.55a.93.93 0 0 1 -.93.84h-3.12a.63.63 0 0 1 -.6-.5c-1.59-8.11-2.73-14.84-3.56-20.66-.7-4.88-1.32-9-1.8-12.65s-.82-6.65-.94-9.21v-2.29l13.27-1.29c-.21 8.77-1.57 22.29-1.55 25.21z" fill="#473f47" transform="translate(-26.48 -16.99)"/><path d="m98 243.83h-1.45a.76.76 0 0 1 -.73-.6c-1.58-8.07-2.71-14.77-3.54-20.56-.7-4.88-1.32-9-1.8-12.65s-.82-6.65-.94-9.21l4.87 2.87s-3.1 1.09-1.92 9.39 3.81 29.58 5.51 30.76z" fill="url(#o)" transform="translate(-26.48 -16.99)"/><path d="m98.58 200.72s-.93 3.38-4.17 2.95a38.86 38.86 0 0 1 -7.83-2.37s1.38-4.37 3.1-10.11c2.08-6.94 4.66-15.89 5.87-21.54a36 36 0 0 0 .66-3.85l2.68-5.21s4 9 4.22 11.24-4.53 28.89-4.53 28.89z" fill="#0052cc" transform="translate(-26.48 -16.99)"/><path d="m98.44 176.58c-.15 3.66-1 10.78-8.7 14.58h-.06c2.08-6.94 4.66-15.89 5.87-21.54 1.45 2.14 2.97 4.94 2.89 6.96z" fill="url(#p)" transform="translate(-26.48 -16.99)"/><g fill="#0052cc"><path d="m98.89 160.59s-6.56.47-8.14 4-1.51 8.17-1.36 11.93c.09 2.28.15 4.65 1.22 6.72a30.19 30.19 0 0 0 5.25 6.5 2.73 2.73 0 0 0 1.15.83 2.39 2.39 0 0 0 1.49-.19 8.26 8.26 0 0 0 2.86-1.91c-.33-.29-.46-1-.71-1.43a17.06 17.06 0 0 1 -1-1.89 42.18 42.18 0 0 0 -2-3.83 23.17 23.17 0 0 1 -2-3.17 4.24 4.24 0 0 1 .07-3.6 32.92 32.92 0 0 0 1-4.26c.72-3.23 1.44-6.47 2.17-9.7z" transform="translate(-26.48 -16.99)"/><path d="m134.58 236.54c-1.38-.62-2.5.17-2.5 1.77a4.77 4.77 0 0 0 2.5 4c1.38.62 2.49-.17 2.49-1.77a4.76 4.76 0 0 0 -2.49-4z" fill-rule="evenodd" transform="translate(-26.48 -16.99)"/><path d="m133.78 236.32a3.85 3.85 0 0 0 -1.54.23c-.31.14 1.76 1.32 1.54-.23z" fill-rule="evenodd" transform="translate(-26.48 -16.99)"/><path d="m134.56 242.65a3.79 3.79 0 0 0 1.53-.22c.31-.14-1.78-1.32-1.53.22z" fill-rule="evenodd" transform="translate(-26.48 -16.99)"/><path d="m133.67 236.65c-1.38-.62-2.49.17-2.49 1.77a4.74 4.74 0 0 0 2.49 4c1.38.63 2.5-.16 2.5-1.76a4.79 4.79 0 0 0 -2.5-4.01z" fill-rule="evenodd" transform="translate(-26.48 -16.99)"/><path d="m133.67 238.7c-.4-.19-.73.05-.73.52a1.39 1.39 0 0 0 .73 1.18c.41.18.74-.05.74-.52a1.39 1.39 0 0 0 -.74-1.18z" fill-rule="evenodd" transform="translate(-26.48 -16.99)"/><path d="m91.46 213.13 25.6 17.87-.33.69-25.6-17.88z" fill-rule="evenodd"/><path d="m94.7 212.16 25.6 17.87-.32.69-25.61-17.88z" fill-rule="evenodd"/><path d="m98.24 209.78 25.6 17.87-.33.67-25.6-17.86z" fill-rule="evenodd"/><path d="m101.89 208.88 25.6 17.87-.33.69-25.6-17.88z" fill-rule="evenodd"/><path d="m150 247.31c-1.38-.62-2.49.17-2.49 1.77a4.76 4.76 0 0 0 2.49 4c1.38.62 2.5-.17 2.5-1.77a4.77 4.77 0 0 0 -2.5-4z" fill-rule="evenodd" transform="translate(-26.48 -16.99)"/><path d="m149.23 247.09a3.85 3.85 0 0 0 -1.54.23c-.31.14 1.78 1.32 1.54-.23z" fill-rule="evenodd" transform="translate(-26.48 -16.99)"/><path d="m150 253.42a3.84 3.84 0 0 0 1.54-.22c.32-.14-1.77-1.32-1.54.22z" fill-rule="evenodd" transform="translate(-26.48 -16.99)"/><path d="m149.12 247.42c-1.37-.62-2.49.17-2.49 1.77a4.74 4.74 0 0 0 2.49 4c1.38.63 2.5-.16 2.5-1.76a4.79 4.79 0 0 0 -2.5-4.01z" fill-rule="evenodd" transform="translate(-26.48 -16.99)"/><path d="m149.12 249.47c-.4-.19-.73.05-.73.52a1.39 1.39 0 0 0 .73 1.18c.41.18.74 0 .74-.52a1.39 1.39 0 0 0 -.74-1.18z" fill-rule="evenodd" transform="translate(-26.48 -16.99)"/><path d="m149.71 246.21a.73.73 0 0 0 -.59-.69.48.48 0 0 0 -.57.37.49.49 0 0 0 0 .12v4.2a.73.73 0 0 0 .58.69.46.46 0 0 0 .57-.33.39.39 0 0 0 0-.15z" fill-rule="evenodd" transform="translate(-26.48 -16.99)"/><path d="m134.26 235.45a.75.75 0 0 0 -.59-.7.49.49 0 0 0 -.58.38.41.41 0 0 0 0 .11v4.2a.73.73 0 0 0 .59.69.46.46 0 0 0 .57-.33.39.39 0 0 0 0-.15z" fill-rule="evenodd" transform="translate(-26.48 -16.99)"/><path d="m135.06 204.71.82 23.71a.4.4 0 0 0 .33.39.28.28 0 0 0 .3-.26v-.05l-.81-23.71a.42.42 0 0 0 -.33-.39.28.28 0 0 0 -.31.25zm20.52 14.5-4 20.3a.41.41 0 0 0 .25.45.26.26 0 0 0 .35-.15.14.14 0 0 0 0-.06l4-20.29a.4.4 0 0 0 -.2-.46.28.28 0 0 0 -.36.13.19.19 0 0 0 0 .07zm-14.89-10.53-1.48 22.15a.41.41 0 0 0 .3.42.28.28 0 0 0 .33-.21.09.09 0 0 0 0 0l1.48-22.16a.41.41 0 0 0 -.3-.42.28.28 0 0 0 -.33.21.13.13 0 0 0 0 .01zm9.54 6.74-3.63 20.58a.42.42 0 0 0 .26.44.27.27 0 0 0 .35-.12.29.29 0 0 0 0-.09l3.62-20.56a.42.42 0 0 0 -.25-.45.26.26 0 0 0 -.35.15.19.19 0 0 0 0 .07zm-7.32 18a.41.41 0 0 0 .28.43.26.26 0 0 0 .33-.15.29.29 0 0 0 0-.09l2.68-21.23a.41.41 0 0 0 -.2-.38.26.26 0 0 0 -.34.16.24.24 0 0 0 0 .08z" fill-rule="evenodd" transform="translate(-26.48 -16.99)"/><path d="m130.47 202 31.79 22.62-6 17.31-24.26-17.21zm.69 23.62 25.16 17.91a.55.55 0 0 0 .78-.06l.07-.11 6.48-18.63a.82.82 0 0 0 -.31-.9l-33.34-23.66a.55.55 0 0 0 -.78.06l-.07.11a.84.84 0 0 0 -.07.35l1.71 24.31a.8.8 0 0 0 .37.65z" fill-rule="evenodd" transform="translate(-26.48 -16.99)"/><path d="m110.19 211.9-18.48 6.69-.33-.8 18.49-6.69z" fill-rule="evenodd"/><path d="m113.53 214.38-18.49 6.68-.32-.78 18.49-6.69z" fill-rule="evenodd"/><path d="m117.02 216.69-18.48 6.69-.33-.79 18.49-6.68z" fill-rule="evenodd"/><path d="m121.33 219.75-18.49 6.68-.32-.8 18.49-6.67z" fill-rule="evenodd"/><path d="m125.77 223.1-18.49 6.69-.32-.79 18.49-6.69z" fill-rule="evenodd"/><path d="m114.15 231-6.05-21.07 21.09-8.19 1.56 22.8zm17.9-5.89-1.67-24.32a.8.8 0 0 0 -.68-.75.58.58 0 0 0 -.26.05l-22.4 8.7a.63.63 0 0 0 -.32.78l6.45 22.43a.74.74 0 0 0 .8.58h.11l17.63-6.85a.58.58 0 0 0 .34-.62z" fill-rule="evenodd" transform="translate(-26.48 -16.99)"/><path d="m125.44 202.28 2.36 24.05a.4.4 0 0 0 .35.37.28.28 0 0 0 .28-.3l-2.35-24.05a.41.41 0 0 0 -.35-.37.29.29 0 0 0 -.29.29zm-4.55 1.78 3.5 23.62a.39.39 0 0 0 .37.34.29.29 0 0 0 .27-.31s0 0 0-.05l-3.5-23.61a.39.39 0 0 0 -.36-.34.3.3 0 0 0 -.28.3s0-.01 0 .05zm-8 3.13 4.27 23.31a.38.38 0 0 0 .37.34.3.3 0 0 0 .26-.34l-4.27-23.31a.39.39 0 0 0 -.38-.33.28.28 0 0 0 -.25.31.11.11 0 0 0 -0 .02zm4.24-1.92a.39.39 0 0 1 .37.34l3.9 23.46a.28.28 0 0 1 -.21.35.39.39 0 0 1 -.37-.34l-3.9-23.45a.29.29 0 0 1 .2-.36z" fill-rule="evenodd" transform="translate(-26.48 -16.99)"/><path d="m131.45 234.11a.73.73 0 0 0 .62.65.47.47 0 0 0 .55-.38.66.66 0 0 0 0-.14l-2.89-42a.73.73 0 0 0 -.63-.66.47.47 0 0 0 -.54.39.33.33 0 0 0 0 .14z" fill-rule="evenodd" transform="translate(-26.48 -16.99)"/><path d="m129.66 193.15a.92.92 0 0 0 .45-1.23.67.67 0 0 0 -.06-.12 1.18 1.18 0 0 0 -1.42-.64l-24.13 9.37a.93.93 0 0 0 -.47 1.21.54.54 0 0 0 .07.13 1.21 1.21 0 0 0 1.42.65z" fill-rule="evenodd" transform="translate(-26.48 -16.99)"/><path d="m122.08 191.33s3 .93 3.56 2 .82 3.46.39 3.52-1.58-2.33-2-2.43-1-.53-.91-.15.58 1 .42 1.17-.94-.84-1.37-1-.94-1.84-1.42-2.24 1.33-.87 1.33-.87z" transform="translate(-26.48 -16.99)"/><path d="m74.88 170.82 4.75 8.34-1.53 1.03-6.46-6.93z"/><path d="m105.65 196a3.88 3.88 0 0 1 .72.26 5.07 5.07 0 0 1 1.42.65 6.86 6.86 0 0 1 1.77 2.36 1.7 1.7 0 0 1 .13 1.46 1.92 1.92 0 0 1 -.87.67.75.75 0 0 1 -.3.09.79.79 0 0 1 -.43-.21l-2.21-1.85a3.12 3.12 0 0 1 -.82-.88c-.19-.34-.25-.74-.42-1.09s-.51-.55-.26-.89.9-.46 1.27-.57z" transform="translate(-26.48 -16.99)"/><path d="m115.34 239.8a.69.69 0 0 0 .73.52.48.48 0 0 0 .42-.53v-.12l-10.89-38.22a.71.71 0 0 0 -.73-.52.5.5 0 0 0 -.42.55v.11z" fill-rule="evenodd" transform="translate(-26.48 -16.99)"/><path d="m119 242.89c-1.38-.63-2.49.16-2.49 1.76a4.76 4.76 0 0 0 2.49 4c1.38.62 2.5-.17 2.5-1.77a4.74 4.74 0 0 0 -2.5-3.99z" fill-rule="evenodd" transform="translate(-26.48 -16.99)"/><path d="m118.23 242.66a3.85 3.85 0 0 0 -1.54.23c-.31.11 1.78 1.32 1.54-.23z" fill-rule="evenodd" transform="translate(-26.48 -16.99)"/><path d="m119 249a3.67 3.67 0 0 0 1.54-.22c.32-.15-1.77-1.33-1.54.22z" fill-rule="evenodd" transform="translate(-26.48 -16.99)"/><path d="m118.12 243c-1.37-.62-2.49.17-2.49 1.77a4.74 4.74 0 0 0 2.49 4c1.38.63 2.5-.16 2.5-1.76a4.79 4.79 0 0 0 -2.5-4.01z" fill-rule="evenodd" transform="translate(-26.48 -16.99)"/><path d="m118.12 245c-.4-.19-.73.05-.73.52a1.39 1.39 0 0 0 .73 1.18c.41.19.74 0 .74-.52a1.39 1.39 0 0 0 -.74-1.18z" fill-rule="evenodd" transform="translate(-26.48 -16.99)"/><path d="m134.48 253.65c-1.37-.62-2.49.17-2.49 1.77a4.76 4.76 0 0 0 2.49 4c1.38.62 2.5-.17 2.5-1.77a4.77 4.77 0 0 0 -2.5-4z" fill-rule="evenodd" transform="translate(-26.48 -16.99)"/><path d="m133.68 253.43a3.85 3.85 0 0 0 -1.54.23c-.3.14 1.78 1.34 1.54-.23z" fill-rule="evenodd" transform="translate(-26.48 -16.99)"/><path d="m134.46 259.76a3.84 3.84 0 0 0 1.54-.22c.31-.14-1.78-1.32-1.54.22z" fill-rule="evenodd" transform="translate(-26.48 -16.99)"/><path d="m133.58 253.76c-1.38-.62-2.5.17-2.5 1.77a4.74 4.74 0 0 0 2.5 4c1.38.63 2.49-.16 2.49-1.76a4.76 4.76 0 0 0 -2.49-4.01z" fill-rule="evenodd" transform="translate(-26.48 -16.99)"/><path d="m134.17 252.56a.75.75 0 0 0 -.59-.7.48.48 0 0 0 -.58.36.57.57 0 0 0 0 .13v4.2a.75.75 0 0 0 .59.7.49.49 0 0 0 .58-.38.41.41 0 0 0 0-.11z" fill-rule="evenodd" transform="translate(-26.48 -16.99)"/><path d="m153.05 249.82-21.3-15.18-14.35 5.47 21.24 15.33zm-14.71 6.73-22.43-16.18a.65.65 0 0 1 -.23-.84.45.45 0 0 1 .22-.19l15.56-5.93a.63.63 0 0 1 .58.11l22.5 16a.65.65 0 0 1 .23.84.43.43 0 0 1 -.24.2l-15.6 6.08a.63.63 0 0 1 -.59-.09z" fill-rule="evenodd" transform="translate(-26.48 -16.99)"/><path d="m118.71 241.79a.72.72 0 0 0 -.59-.69.47.47 0 0 0 -.57.35.57.57 0 0 0 0 .13v4.2a.74.74 0 0 0 .58.7.48.48 0 0 0 .58-.36.57.57 0 0 0 0-.13z" fill-rule="evenodd" transform="translate(-26.48 -16.99)"/><path d="m136.16 237-.32-.79-16.23 5.87.32.79zm3.34 2.49-16.23 5.87-.32-.79 16.23-5.87zm3.5 2.31-16.23 5.87-.32-.79 16.22-5.88.32.79zm4.31 3-16.23 5.87-.32-.79 16.24-5.81.32.79zm-11.79 9.23-.32-.79 16.23-5.87.32.79z" fill-rule="evenodd" transform="translate(-26.48 -16.99)"/></g><path d="m150 247.31c-1.38-.62-2.49.17-2.49 1.77a4.76 4.76 0 0 0 2.49 4c1.38.62 2.5-.17 2.5-1.77a4.77 4.77 0 0 0 -2.5-4z" fill="url(#q)" fill-rule="evenodd" transform="translate(-26.48 -16.99)"/><path d="m149.23 247.09a3.85 3.85 0 0 0 -1.54.23c-.31.14 1.78 1.32 1.54-.23z" fill="url(#r)" fill-rule="evenodd" transform="translate(-26.48 -16.99)"/><path d="m150 253.42a3.84 3.84 0 0 0 1.54-.22c.32-.14-1.77-1.32-1.54.22z" fill="url(#s)" fill-rule="evenodd" transform="translate(-26.48 -16.99)"/><path d="m149.12 247.42c-1.37-.62-2.49.17-2.49 1.77a4.74 4.74 0 0 0 2.49 4c1.38.63 2.5-.16 2.5-1.76a4.79 4.79 0 0 0 -2.5-4.01z" fill="#473f47" fill-rule="evenodd" transform="translate(-26.48 -16.99)"/><path d="m149.12 249.47c-.4-.19-.73.05-.73.52a1.39 1.39 0 0 0 .73 1.18c.41.18.74 0 .74-.52a1.39 1.39 0 0 0 -.74-1.18z" fill="url(#t)" fill-rule="evenodd" transform="translate(-26.48 -16.99)"/><path d="m149.71 246.21a.73.73 0 0 0 -.59-.69.48.48 0 0 0 -.57.37.49.49 0 0 0 0 .12v4.2a.73.73 0 0 0 .58.69.46.46 0 0 0 .57-.33.39.39 0 0 0 0-.15z" fill="url(#u)" fill-rule="evenodd" transform="translate(-26.48 -16.99)"/><path d="m135.06 204.71.82 23.71a.4.4 0 0 0 .33.39.28.28 0 0 0 .3-.26v-.05l-.81-23.71a.42.42 0 0 0 -.33-.39.28.28 0 0 0 -.31.25zm20.52 14.5-4 20.3a.41.41 0 0 0 .25.45.26.26 0 0 0 .35-.15.14.14 0 0 0 0-.06l4-20.29a.4.4 0 0 0 -.2-.46.28.28 0 0 0 -.36.13.19.19 0 0 0 0 .07zm-14.89-10.53-1.48 22.15a.41.41 0 0 0 .3.42.28.28 0 0 0 .33-.21.09.09 0 0 0 0 0l1.48-22.16a.41.41 0 0 0 -.3-.42.28.28 0 0 0 -.33.21.13.13 0 0 0 0 .01zm9.54 6.74-3.63 20.58a.42.42 0 0 0 .26.44.27.27 0 0 0 .35-.12.29.29 0 0 0 0-.09l3.62-20.56a.42.42 0 0 0 -.25-.45.26.26 0 0 0 -.35.15.19.19 0 0 0 0 .07zm-7.32 18a.41.41 0 0 0 .28.43.26.26 0 0 0 .33-.15.29.29 0 0 0 0-.09l2.68-21.23a.41.41 0 0 0 -.2-.38.26.26 0 0 0 -.34.16.24.24 0 0 0 0 .08z" fill="url(#v)" fill-rule="evenodd" transform="translate(-26.48 -16.99)"/><path d="m130.47 202 31.79 22.62-6 17.31-24.26-17.21zm.69 23.62 25.16 17.91a.55.55 0 0 0 .78-.06l.07-.11 6.48-18.63a.82.82 0 0 0 -.31-.9l-33.34-23.66a.55.55 0 0 0 -.78.06l-.07.11a.84.84 0 0 0 -.07.35l1.71 24.31a.8.8 0 0 0 .37.65z" fill="url(#w)" fill-rule="evenodd" transform="translate(-26.48 -16.99)"/><path d="m114.15 231-6.05-21.07 21.09-8.19 1.56 22.8zm17.9-5.89-1.67-24.32a.8.8 0 0 0 -.68-.75.58.58 0 0 0 -.26.05l-22.4 8.7a.63.63 0 0 0 -.32.78l6.45 22.43a.74.74 0 0 0 .8.58h.11l17.63-6.85a.58.58 0 0 0 .34-.62z" fill="url(#x)" fill-rule="evenodd" transform="translate(-26.48 -16.99)"/><path d="m125.44 202.28 2.36 24.05a.4.4 0 0 0 .35.37.28.28 0 0 0 .28-.3l-2.35-24.05a.41.41 0 0 0 -.35-.37.29.29 0 0 0 -.29.29zm-4.55 1.78 3.5 23.62a.39.39 0 0 0 .37.34.29.29 0 0 0 .27-.31s0 0 0-.05l-3.5-23.61a.39.39 0 0 0 -.36-.34.3.3 0 0 0 -.28.3s0-.01 0 .05zm-8 3.13 4.27 23.31a.38.38 0 0 0 .37.34.3.3 0 0 0 .26-.34l-4.27-23.31a.39.39 0 0 0 -.38-.33.28.28 0 0 0 -.25.31.11.11 0 0 0 -0 .02zm4.24-1.92a.39.39 0 0 1 .37.34l3.9 23.46a.28.28 0 0 1 -.21.35.39.39 0 0 1 -.37-.34l-3.9-23.45a.29.29 0 0 1 .2-.36z" fill="url(#y)" fill-rule="evenodd" transform="translate(-26.48 -16.99)"/><path d="m131.45 234.11a.73.73 0 0 0 .62.65.47.47 0 0 0 .55-.38.66.66 0 0 0 0-.14l-2.89-42a.73.73 0 0 0 -.63-.66.47.47 0 0 0 -.54.39.33.33 0 0 0 0 .14z" fill="url(#z)" fill-rule="evenodd" transform="translate(-26.48 -16.99)"/><path d="m129.66 193.15a.92.92 0 0 0 .45-1.23.67.67 0 0 0 -.06-.12 1.18 1.18 0 0 0 -1.42-.64l-24.13 9.37a.93.93 0 0 0 -.47 1.21.54.54 0 0 0 .07.13 1.21 1.21 0 0 0 1.42.65z" fill="#0052cc" fill-rule="evenodd" transform="translate(-26.48 -16.99)"/><path d="m122.08 191.33s3 .93 3.56 2 .82 3.46.39 3.52-1.58-2.33-2-2.43-1-.53-.91-.15.58 1 .42 1.17-.94-.84-1.37-1-.94-1.84-1.42-2.24 1.33-.87 1.33-.87z" fill="#ffb27d" transform="translate(-26.48 -16.99)"/><path d="m74.88 170.82 4.75 8.34-1.53 1.03-6.46-6.93z" fill="#ffb27d"/><path d="m105.65 196a3.88 3.88 0 0 1 .72.26 5.07 5.07 0 0 1 1.42.65 6.86 6.86 0 0 1 1.77 2.36 1.7 1.7 0 0 1 .13 1.46 1.92 1.92 0 0 1 -.87.67.75.75 0 0 1 -.3.09.79.79 0 0 1 -.43-.21l-2.21-1.85a3.12 3.12 0 0 1 -.82-.88c-.19-.34-.25-.74-.42-1.09s-.51-.55-.26-.89.9-.46 1.27-.57z" fill="#ffb27d" transform="translate(-26.48 -16.99)"/><path d="m115.34 239.8a.69.69 0 0 0 .73.52.48.48 0 0 0 .42-.53v-.12l-10.89-38.22a.71.71 0 0 0 -.73-.52.5.5 0 0 0 -.42.55v.11z" fill="url(#A)" fill-rule="evenodd" transform="translate(-26.48 -16.99)"/><path d="m119 242.89c-1.38-.63-2.49.16-2.49 1.76a4.76 4.76 0 0 0 2.49 4c1.38.62 2.5-.17 2.5-1.77a4.74 4.74 0 0 0 -2.5-3.99z" fill="url(#B)" fill-rule="evenodd" transform="translate(-26.48 -16.99)"/><path d="m118.23 242.66a3.85 3.85 0 0 0 -1.54.23c-.31.11 1.78 1.32 1.54-.23z" fill="url(#C)" fill-rule="evenodd" transform="translate(-26.48 -16.99)"/><path d="m119 249a3.67 3.67 0 0 0 1.54-.22c.32-.15-1.77-1.33-1.54.22z" fill="url(#D)" fill-rule="evenodd" transform="translate(-26.48 -16.99)"/><path d="m118.12 243c-1.37-.62-2.49.17-2.49 1.77a4.74 4.74 0 0 0 2.49 4c1.38.63 2.5-.16 2.5-1.76a4.79 4.79 0 0 0 -2.5-4.01z" fill="#473f47" fill-rule="evenodd" transform="translate(-26.48 -16.99)"/><path d="m118.12 245c-.4-.19-.73.05-.73.52a1.39 1.39 0 0 0 .73 1.18c.41.19.74 0 .74-.52a1.39 1.39 0 0 0 -.74-1.18z" fill="url(#E)" fill-rule="evenodd" transform="translate(-26.48 -16.99)"/><path d="m134.48 253.65c-1.37-.62-2.49.17-2.49 1.77a4.76 4.76 0 0 0 2.49 4c1.38.62 2.5-.17 2.5-1.77a4.77 4.77 0 0 0 -2.5-4z" fill="url(#F)" fill-rule="evenodd" transform="translate(-26.48 -16.99)"/><path d="m133.68 253.43a3.85 3.85 0 0 0 -1.54.23c-.3.14 1.78 1.34 1.54-.23z" fill="url(#G)" fill-rule="evenodd" transform="translate(-26.48 -16.99)"/><path d="m134.46 259.76a3.84 3.84 0 0 0 1.54-.22c.31-.14-1.78-1.32-1.54.22z" fill="url(#H)" fill-rule="evenodd" transform="translate(-26.48 -16.99)"/><path d="m133.58 253.76c-1.38-.62-2.5.17-2.5 1.77a4.74 4.74 0 0 0 2.5 4c1.38.63 2.49-.16 2.49-1.76a4.76 4.76 0 0 0 -2.49-4.01z" fill="#473f47" fill-rule="evenodd" transform="translate(-26.48 -16.99)"/><path d="m134.17 252.56a.75.75 0 0 0 -.59-.7.48.48 0 0 0 -.58.36.57.57 0 0 0 0 .13v4.2a.75.75 0 0 0 .59.7.49.49 0 0 0 .58-.38.41.41 0 0 0 0-.11z" fill="#fff" fill-rule="evenodd" transform="translate(-26.48 -16.99)"/><path d="m118.71 241.79a.72.72 0 0 0 -.59-.69.47.47 0 0 0 -.57.35.57.57 0 0 0 0 .13v4.2a.74.74 0 0 0 .58.7.48.48 0 0 0 .58-.36.57.57 0 0 0 0-.13z" fill="#fff" fill-rule="evenodd" transform="translate(-26.48 -16.99)"/><path d="m136.16 237-.32-.79-16.23 5.87.32.79zm3.34 2.49-16.23 5.87-.32-.79 16.23-5.87zm3.5 2.31-16.23 5.87-.32-.79 16.22-5.88.32.79zm4.31 3-16.23 5.87-.32-.79 16.24-5.81.32.79zm-11.79 9.23-.32-.79 16.23-5.87.32.79z" fill="url(#I)" fill-rule="evenodd" transform="translate(-26.48 -16.99)"/><path d="m139.71 248.77 1.51-15.08 20.7-8-5.83 16.76-16.38 6.36zm17.5-5.49 6.44-18.52a.83.83 0 0 0 -.39-.95.67.67 0 0 0 -.5-.05l-22.42 8.71a.59.59 0 0 0 -.35.49l-1.67 16.71a.83.83 0 0 0 .57.85.53.53 0 0 0 .35 0l17.65-6.86a.56.56 0 0 0 .32-.38z" fill="#fff" fill-rule="evenodd" transform="translate(-26.48 -16.99)"/><path d="m157.35 226.4-3.95 17.6a.41.41 0 0 0 .24.46.28.28 0 0 0 .36-.13.19.19 0 0 0 0-.07l4-17.61a.42.42 0 0 0 -.24-.45.28.28 0 0 0 -.36.13.19.19 0 0 0 0 .07zm-4.56 1.78a.28.28 0 0 1 .3-.24h.07a.42.42 0 0 1 .26.44l-2.8 17.14a.27.27 0 0 1 -.29.25h-.08a.42.42 0 0 1 -.26-.45zm-8 3.14-2 16.84a.41.41 0 0 0 .28.43.28.28 0 0 0 .34-.18.17.17 0 0 0 0-.07l2-16.84a.41.41 0 0 0 -.28-.43.28.28 0 0 0 -.34.18.17.17 0 0 0 0 .07zm1.59 15.42a.42.42 0 0 0 .27.44.26.26 0 0 0 .35-.18l2.4-17a.41.41 0 0 0 -.27-.44.29.29 0 0 0 -.35.19.43.43 0 0 0 0 .05z" fill="#fff" fill-rule="evenodd" transform="translate(-26.48 -16.99)"/><path d="m91 147.92a3.44 3.44 0 0 0 -.38.93 4.42 4.42 0 0 0 0 3.46 4.74 4.74 0 0 0 .69 1.22 2.07 2.07 0 0 0 1.18.73.38.38 0 0 0 .15 0 .22.22 0 0 0 .1-.09 1.3 1.3 0 0 0 0-.95 7.93 7.93 0 0 1 .26-3.59 4.58 4.58 0 0 0 .23-1.32 1.06 1.06 0 0 0 -.79-1.09 1.41 1.41 0 0 0 -1.44.7z" fill="#0052cc" transform="translate(-26.48 -16.99)"/><path d="m80.56 191.79 33.96 23.87-.53 1.68-33.12-23.77z" fill="#fff" fill-rule="evenodd"/><path d="m88.61 198.88 3.16 19.08.66.2-2.59-18.56z" fill="#fff" fill-rule="evenodd"/><path d="m94.76 203.18 1.72 18.35.66.22-1.15-17.84z" fill="#fff" fill-rule="evenodd"/><path d="m100.79 207.19.2 17.47.66.22.37-16.94z" fill="#fff" fill-rule="evenodd"/><path d="m105.29 211.01.84 17.77.66.22-.27-17.25z" fill="#fff" fill-rule="evenodd"/><path d="m112.26 231.78-24.6-17.78-.17 1.62 24.92 17.91z" fill="#fff" fill-rule="evenodd"/><path d="m71.61 105.94v16.93a5.9 5.9 0 0 0 5.8 6h13l5.85 8.47v-8.47h11a5.9 5.9 0 0 0 5.82-6v-17a5.92 5.92 0 0 0 -5.82-6h-29.84a5.91 5.91 0 0 0 -5.81 6.07z" fill="#fff" transform="translate(-26.48 -16.99)"/><path d="m90 126.69.11-2.88a7.62 7.62 0 0 1 -4.11-1.44l.72-1.86a7.16 7.16 0 0 0 3.88 1.38c2 .07 3.31-1 3.37-2.64s-1-2.56-3-3.5c-2.75-1.24-4.43-2.62-4.33-5.07a4.56 4.56 0 0 1 4.36-4.38l.1-2.88 1.7.07-.1 2.74a7.26 7.26 0 0 1 3.52 1.14l-.74 1.87a6.47 6.47 0 0 0 -3.48-1.11c-2.11-.09-3 1.18-3 2.31-.06 1.47.93 2.24 3.25 3.36 2.79 1.3 4.15 2.83 4 5.34a4.85 4.85 0 0 1 -4.51 4.63l-.11 2.94z" fill="#0052cc" transform="translate(-26.48 -16.99)"/></svg>